<svg width="34" height="33" viewBox="0 0 34 33" fill="none" xmlns="http://www.w3.org/2000/svg">
<path d="M31.659 10.501C31.506 10.5564 31.3375 10.5509 31.1881 10.4857C21.7951 6.23914 1.16709 11.3118 0.95897 11.3609C0.878988 11.381 0.795819 11.385 0.714208 11.3729C0.632597 11.3607 0.554143 11.3326 0.483328 11.2901C0.412512 11.2476 0.350721 11.1915 0.301481 11.1251C0.252241 11.0587 0.216517 10.9832 0.19635 10.903C0.176182 10.8229 0.171964 10.7395 0.18394 10.6577C0.195915 10.576 0.223853 10.4974 0.266147 10.4265C0.308442 10.3556 0.364269 10.2938 0.430444 10.2446C0.496619 10.1953 0.571843 10.1597 0.651824 10.1396C1.51666 9.9226 21.916 4.91539 31.6999 9.33521C31.8128 9.38683 31.9079 9.47092 31.973 9.57677C32.0382 9.68263 32.0704 9.80546 32.0657 9.92963C32.061 10.0538 32.0196 10.1737 31.9466 10.274C31.8737 10.3744 31.7726 10.4507 31.6561 10.4932L31.659 10.501Z" fill="#F8F8F8"/>
<path d="M32.4305 18.7508C32.3526 18.7796 32.2696 18.7923 32.1867 18.7882C32.1037 18.784 32.0223 18.7631 31.9476 18.7266C22.7967 14.2808 4.22964 15.9949 4.03606 15.9987C3.95208 16.0115 3.86636 16.007 3.78414 15.9854C3.70191 15.9638 3.62492 15.9257 3.55785 15.8733C3.49078 15.8209 3.43504 15.7554 3.39406 15.6807C3.35307 15.6061 3.3277 15.5239 3.31948 15.4391C3.31126 15.3544 3.32037 15.2688 3.34626 15.1878C3.37215 15.1067 3.41427 15.0319 3.47004 14.9677C3.52581 14.9036 3.59406 14.8516 3.67063 14.8149C3.7472 14.7781 3.83047 14.7574 3.91536 14.754C4.6946 14.6793 23.0343 12.9857 32.486 17.5886C32.5978 17.6413 32.6913 17.7262 32.7547 17.8324C32.8182 17.9386 32.8486 18.0612 32.8422 18.1847C32.8358 18.3082 32.7928 18.4269 32.7187 18.5256C32.6446 18.6244 32.5428 18.6987 32.4262 18.7391L32.4305 18.7508Z" fill="#F8F8F8"/>
<path d="M24.7335 25.8845C24.6406 25.923 24.5397 25.9383 24.4395 25.929C24.3393 25.9198 24.2428 25.8862 24.1583 25.8313C20.0582 23.1923 3.67095 22.039 3.50375 22.0263C3.41914 22.0246 3.33571 22.0058 3.25852 21.9709C3.18134 21.9359 3.11201 21.8857 3.05473 21.8231C2.99746 21.7606 2.95343 21.6871 2.92533 21.607C2.89723 21.527 2.88565 21.4421 2.89127 21.3575C2.89689 21.2729 2.9196 21.1904 2.95803 21.1149C2.99646 21.0394 3.04981 20.9726 3.11483 20.9184C3.17985 20.8643 3.25521 20.824 3.33631 20.7999C3.41741 20.7759 3.50257 20.7686 3.58663 20.7785C4.26087 20.8318 20.4723 21.9623 24.8339 24.7785C24.9302 24.8405 25.0076 24.9278 25.0578 25.0308C25.108 25.1338 25.1291 25.2486 25.1188 25.3627C25.1084 25.4768 25.067 25.5857 24.9991 25.6777C24.9311 25.7697 24.8393 25.8413 24.7335 25.8845Z" fill="#F8F8F8"/>
</svg>
