<svg width="24" height="24" viewBox="0 0 24 24" fill="none" xmlns="http://www.w3.org/2000/svg">
<path d="M23.5118 3.77335C23.3752 3.04951 23.1083 2.3894 22.7376 1.85871C22.3669 1.32801 21.9053 0.945248 21.3989 0.748513C19.521 0.0120024 12.0083 1.30114e-05 12.0083 1.30114e-05C12.0083 1.30114e-05 4.49682 -0.0119771 2.61775 0.69199C2.11162 0.897779 1.65102 1.28596 1.28017 1.81925C0.90933 2.35255 0.640691 3.01306 0.500048 3.73738C0.00479858 6.41965 1.75693e-06 11.9829 1.75693e-06 11.9829C1.75693e-06 11.9829 -0.00479483 17.5735 0.486857 20.2284C0.762662 21.6963 1.57209 22.8558 2.60096 23.2515C4.49802 23.988 11.9903 24 11.9903 24C11.9903 24 19.503 24.012 21.3809 23.3097C21.8875 23.1133 22.3495 22.7315 22.7211 22.2018C23.0927 21.6722 23.3611 21.0132 23.4998 20.29C23.9962 17.6095 23.9998 12.048 23.9998 12.048C23.9998 12.048 24.0238 6.45562 23.5118 3.77335V3.77335ZM9.60521 17.1367L9.6112 6.85984L15.8552 12.0069L9.60521 17.1367V17.1367Z" fill="#E0E0E0"/>
</svg>
