<svg width="130" height="213" viewBox="0 0 84 138" fill="none" xmlns="http://www.w3.org/2000/svg">
<g style="mix-blend-mode:soft-light">
<path d="M67.809 57.8853C78.4788 52.6713 83.5603 44.5102 83.6626 29.2358C83.7759 12.7198 60.8426 -7.78873 38.316 3.65591C15.7895 15.1006 22.9026 37.194 22.9026 37.194C22.9026 37.194 26.8038 42.6355 39.5742 49.858C52.3445 57.0806 67.809 57.8853 67.809 57.8853Z" fill="white"/>
</g>
<path d="M21.4377 40.8766C21.4377 40.8766 15.5894 41.4629 12.8752 40.8766C10.1611 40.2904 5.12188 38.1325 4.45502 38.8013C3.78816 39.47 4.82624 40.2881 4.82624 40.2881C4.82624 40.2881 3.78816 40.1276 3.56587 40.9145C3.34358 41.7014 4.23273 42.2208 4.23273 42.2208C4.23273 42.2208 3.71703 42.0715 3.53031 42.8138C3.34358 43.5561 11.6971 51.2513 12.115 51.7172C12.115 51.7172 17.4521 51.7907 21.4377 40.8766Z" fill="#E5E8ED"/>
<path d="M18.7925 41.1107C17.8772 42.9436 16.4739 44.4867 14.738 45.5691C11.2815 47.7158 6.42449 44.343 3.91487 42.2253C3.89265 42.2855 3.64813 42.3501 3.63035 42.4282C3.25468 44.1647 11.9083 50.2036 12.7197 51.0462C12.7197 51.0462 18.0857 51.842 21.7156 40.7919C21.7156 40.8098 20.4463 40.9814 18.7925 41.1107Z" fill="#CDCED1"/>
<path d="M73.5863 27.4324C72.5482 26.3936 69.6207 26.5408 69.6207 26.5408C61.1382 15.1719 45.6515 12.9427 45.6515 12.9427C45.6515 12.9427 44.9846 10.9365 43.7976 11.2352C42.6106 11.5339 40.241 13.0185 39.6475 13.9102C39.054 14.8019 34.3126 18.665 32.3854 19.7061C30.4581 20.7471 25.5701 23.7186 25.4211 26.0949C25.4211 26.0949 23.4428 29.0308 23.8785 31.7437C23.8785 31.7437 24.0563 31.7437 23.9318 32.0758C23.5406 33.1191 23.3561 34.5747 23.8785 36.4985L23.5584 38.5784C23.5584 38.5784 15.945 46.7127 12.3818 51.3605C6.45338 59.0869 3.19243 73.0572 2.60115 79.2989C2.00987 85.5406 -0.361936 94.308 0.527212 94.9768C1.22297 95.5006 1.50972 94.9344 1.60086 94.6625C1.52973 94.95 1.4297 95.6366 2.00987 95.8685C2.62782 96.1159 2.88345 95.436 2.95236 95.1997C2.89457 95.436 2.77676 96.1471 3.41694 96.1538C4.37944 96.1538 14.0867 86.2807 14.0867 86.2807L16.1873 87.6182C22.2681 90.8161 28.818 93.0224 35.5908 94.1542L37.0601 94.5287C37.0601 94.5287 36.4199 109.921 37.0601 110.467C37.6491 110.969 38.316 110.244 38.316 110.244C38.316 110.244 38.4827 111.025 38.9273 111.192C39.3719 111.359 40.0387 110.467 40.0387 110.467C40.0387 110.467 39.9831 111.219 40.7056 111.219C41.4836 111.219 48.8746 102.908 50.9308 96.1538L52.8758 92.411C52.8758 92.411 58.433 78.7015 60.3224 72.5712C60.3224 72.5712 62.6698 63.8774 63.9901 61.2024C64.5948 59.9785 67.091 56.7106 67.091 56.7106C68.0698 56.5924 68.9705 56.1162 69.6207 55.3731L70.5476 54.1827C73.8819 51.9379 73.2439 45.5 73.5863 42.5909C73.8508 40.335 74.6221 28.4735 73.5863 27.4324Z" fill="#E5E8ED"/>
<path d="M59.4333 134.879C59.4333 134.879 60.2891 137.666 63.2121 137.666C64.9904 137.666 67.5778 134.518 67.9913 133.542C69.6207 129.692 71.3256 125.543 70.103 119.386C67.9535 108.575 61.645 99.4596 57.4216 93.8621C55.7566 91.6552 54.6452 87.9749 54.6452 87.9749L49.5904 99.4596C49.5904 99.4596 55.8767 111.584 56.5991 118.495C57.3215 125.405 53.8761 132.761 57.4327 135.214V132.316C57.4327 132.316 56.9881 136.105 60.3224 137.443L59.4333 134.879Z" fill="#E5E8ED"/>
<path d="M56.5991 109.319C52.1311 99.7895 54.1539 93.9201 55.5677 91.1403C54.9853 89.7649 54.6452 88.6436 54.6452 88.6436L50.035 99.0138C50.035 99.0138 56.3212 111.138 57.0437 118.049C57.7661 124.959 54.3207 132.316 57.8773 134.768V132.806C57.8495 132.495 57.8495 132.181 57.8773 131.87V132.806C57.8884 132.951 57.9062 133.109 57.9328 133.279C57.9751 127.322 61.5539 119.886 56.5991 109.319Z" fill="#CDCED1"/>
<path d="M58.0262 72.3505C67.5089 73.9488 78.2365 68.8618 78.4766 68.6723C79.1434 68.1529 78.032 67.4842 78.032 67.4842C78.032 67.4842 79.0679 67.2613 79.1323 66.6661C79.1968 66.0709 78.2543 65.5515 78.2543 65.5515C78.9211 65.4779 79.4391 64.5127 78.9211 64.1404C78.4032 63.7681 74.5488 63.9911 70.9188 62.9523C67.2889 61.9135 64.6948 58.7168 64.6948 58.7168C64.6948 58.7168 60.5313 59.8515 58.9153 64.0668C57.936 66.7108 57.6304 69.5581 58.0262 72.3505Z" fill="#E5E8ED"/>
<path d="M78.4055 67.1119C76.0893 68.0928 72.0303 69.7089 70.2164 69.7869C61.794 70.1503 63.7257 61.3628 64.7304 58.0904C64.7178 58.0769 64.7059 58.0628 64.6948 58.048C64.6948 58.048 60.5314 59.1827 58.9154 63.3981C57.9375 66.0393 57.6319 68.8833 58.0262 71.6728C67.509 73.2712 78.2366 68.1842 78.4766 67.9947C78.8567 67.7026 78.6478 67.3527 78.4055 67.1119Z" fill="#CDCED1"/>
<path d="M44.5401 13.3885C44.1982 13.5296 43.8165 13.5394 43.468 13.4161C43.1194 13.2927 42.8284 13.0448 42.6506 12.7198C42.6506 12.7198 41.7615 13.9592 42.8729 14.4608C43.9843 14.9624 44.5401 13.3885 44.5401 13.3885Z" fill="#CDCED1"/>
<path d="M73.1039 29.0798C71.2145 29.6126 70.7699 28.0276 70.7699 28.0276C70.7699 28.0276 70.0297 29.811 70.9922 30.2902C71.9547 30.7695 73.1039 29.0798 73.1039 29.0798Z" fill="#CDCED1"/>
<path d="M39.563 41.0527C39.563 41.0527 40.6522 42.7937 43.5109 43.2217L41.5258 43.7032C41.5258 43.7032 44.051 44.4032 45.4914 44.2917L44.9957 45.2235C44.9957 45.2235 45.5759 45.4041 47.6276 45.2458C46.8117 45.8115 45.8443 46.1163 44.8525 46.1203C43.8606 46.1242 42.8908 45.8272 42.0704 45.2681C39.0562 43.3354 39.563 41.0527 39.563 41.0527Z" fill="#CDCED1"/>
<path d="M64.7926 59.9005C65.2372 59.2518 65.744 58.5362 66.1752 57.9455C63.4344 58.0391 56.5302 59.254 41.5236 50.9637C28.8688 43.973 23.6518 38.4267 23.6518 38.4267L23.5828 38.4044L23.5562 38.5783C23.5562 38.5783 23.0671 39.1 22.2825 39.9537C24.4609 41.9199 44.2511 59.2629 64.7926 59.9005Z" fill="#CDCED1"/>
<path d="M66.8577 51.7172C61.8784 55.5224 58.1018 52.6244 58.1018 52.6244C58.1018 52.6244 57.8017 62.2099 56.5458 67.0071C54.623 74.3969 50.1595 90.7435 47.621 95.8417C46.3206 98.4543 42.704 106.444 40.7812 110.672C42.6884 109.079 48.6635 101.901 50.4796 95.9353L52.4246 92.1925C52.4246 92.1925 57.9817 78.483 59.8712 72.3527C59.8712 72.3527 62.2185 63.6589 63.5389 60.9839C64.1435 59.7601 66.6398 56.4921 66.6398 56.4921C67.6185 56.374 68.5193 55.8977 69.1695 55.1546L70.0964 53.9642C73.4307 51.7194 72.7927 45.2815 73.1351 42.3724C73.3573 40.5311 73.9064 32.292 73.5374 28.7588C72.9083 29.3339 72.2904 29.8377 71.9303 29.9647C71.9369 29.9603 71.8391 47.9075 66.8577 51.7172Z" fill="#CDCED1"/>
<path d="M8.08276 88.6994C6.31262 90.9705 4.68956 93.3532 3.22357 95.8327C5.0241 94.8296 13.6422 86.0533 13.6422 86.0533C13.6422 86.0533 12.8753 82.7162 8.08276 88.6994Z" fill="#CDCED1"/>
<g style="mix-blend-mode:soft-light">
<g style="mix-blend-mode:soft-light">
<path d="M49.3281 88.6436C46.6607 96.5461 37.0601 94.5309 37.0601 94.5309C37.0601 94.5309 22.2825 91.8982 14.0868 86.2829C3.26361 78.8709 6.20224 73.5476 6.88688 69.9363C8.76743 60.1279 16.2852 40.6426 37.4647 49.7978C58.1018 58.7168 52.8314 78.2579 49.3281 88.6436Z" fill="white"/>
</g>
</g>
<g style="mix-blend-mode:soft-light">
<g style="mix-blend-mode:soft-light">
<path d="M40.3633 7.2538C37.542 8.61555 34.8799 10.2865 32.4254 12.236C30.5049 13.734 29.3734 14.7795 29.0444 14.5566C28.7155 14.3337 29.3179 12.7733 31.0072 10.767C32.0027 9.5988 33.1156 8.53656 34.3282 7.59709C37.3148 5.27472 40.7699 3.6324 44.4534 2.78428C45.942 2.43805 47.4607 2.23796 48.988 2.18686C50.0138 2.14222 51.0414 2.20723 52.0534 2.3808C52.7714 2.52346 53.1648 2.71294 53.1648 2.91134C53.1648 3.32374 51.6288 3.64697 49.2526 4.21765C46.1914 4.91405 43.2119 5.93171 40.3633 7.2538Z" fill="white"/>
</g>
</g>
<g style="mix-blend-mode:multiply">
<g style="mix-blend-mode:multiply">
<path d="M75.129 41.2556C76.1949 38.6064 76.9122 35.8292 77.2629 32.9942C77.5663 30.5993 77.7244 28.188 77.7364 25.7739C77.7608 23.6807 77.7208 21.962 77.7675 20.7448C77.8142 19.5277 77.9409 18.8166 78.2699 18.7185C78.5989 18.6204 79.1101 19.1911 79.6592 20.3413C80.3846 21.9709 80.9129 23.6818 81.233 25.4373C81.7458 28.0561 81.9443 30.7271 81.8242 33.3932C81.693 36.751 80.9799 40.0602 79.717 43.1727C79.0391 44.8112 78.1833 46.3699 77.1651 47.8205C74.6094 51.4477 71.0387 54.2334 66.9043 55.8255C65.2271 56.4952 63.4613 56.9158 61.6628 57.0739C60.3891 57.1541 59.6622 56.9847 59.5733 56.657C59.4844 56.3293 60.0557 55.8501 61.0893 55.2192C62.1229 54.5883 63.6212 53.7858 65.3283 52.6757C67.29 51.4282 69.0888 49.9402 70.6832 48.2463C72.5687 46.2004 74.0743 43.8329 75.129 41.2556Z" fill="#E1E2E3"/>
</g>
</g>
<g style="mix-blend-mode:multiply">
<g style="mix-blend-mode:multiply">
<path d="M49.8149 14.8263C50.4284 14.6725 51.2709 15.183 51.7977 15.4193C52.393 15.7123 53.0089 15.9611 53.6404 16.1639V15.5196C51.9733 15.8027 50.2706 15.5196 48.6012 15.8161C48.2455 15.8763 48.3233 16.36 48.6012 16.4603C49.7237 16.8705 50.8707 17.1982 51.9355 17.7644C51.9599 17.5616 51.9866 17.3565 52.0133 17.1536C51.1241 17.2829 50.235 17.3208 49.3458 17.4501C49.0235 17.4969 49.0702 17.9138 49.2681 18.0609C49.8238 18.48 50.2617 18.9526 50.8974 19.2513C50.953 19.044 51.0086 18.8344 51.0663 18.6271C50.3084 18.5268 49.3103 18.5937 48.8946 19.3427C48.4345 20.1675 49.6926 20.7136 50.2283 20.9187C50.6329 21.0703 50.8041 20.4238 50.4062 20.2745C49.9482 20.1006 49.0302 19.6771 49.9282 19.3404C50.2961 19.2332 50.6846 19.2179 51.0597 19.2959C51.3887 19.3404 51.5154 18.8121 51.2264 18.6739C50.604 18.3752 50.1416 17.8937 49.597 17.4835L49.517 18.0966C50.4062 17.9673 51.2953 17.9271 52.1845 17.7978C52.4756 17.7555 52.5001 17.3141 52.2645 17.1871C51.153 16.5941 49.9549 16.2441 48.7768 15.8161V16.4603C50.4439 16.1772 52.1467 16.4603 53.8138 16.1639C54.1539 16.1059 54.1117 15.6043 53.8138 15.5196C52.5823 15.1652 50.9774 13.8455 49.637 14.1821C49.2191 14.2847 49.397 14.9311 49.8127 14.8263H49.8149Z" fill="#CDCED1"/>
</g>
<g style="mix-blend-mode:multiply">
<path d="M62.9765 21.427C63.8167 22.4992 65.106 23.0832 65.7395 24.3249L66.1174 23.8345C64.9193 23.5335 63.8701 22.7979 62.6719 22.497C62.3163 22.4078 62.0629 22.9428 62.4141 23.1078C63.3032 23.5335 64.5236 24.6058 64.817 25.5822L65.3083 25.2054C64.3813 24.7975 63.5455 24.1755 62.5608 23.908C62.4901 23.8901 62.4155 23.8957 62.3483 23.924C62.281 23.9523 62.2248 24.0018 62.1881 24.0651C62.1515 24.1283 62.1363 24.2018 62.145 24.2744C62.1537 24.347 62.1857 24.4148 62.2363 24.4676C62.6808 25.007 62.9631 25.6513 63.4211 26.1774C63.53 25.9901 63.6433 25.8029 63.7456 25.6178C63.2737 25.5521 62.7949 25.5521 62.323 25.6178C62.2649 25.6188 62.208 25.635 62.158 25.6646C62.108 25.6942 62.0665 25.7364 62.0376 25.787C62.0087 25.8375 61.9934 25.8947 61.9931 25.953C61.9929 26.0113 62.0077 26.0686 62.0362 26.1194C62.343 26.6745 61.9784 26.6455 61.8539 27.0512C61.7295 27.4569 62.3719 27.6397 62.4963 27.2295C62.5519 27.0467 62.7987 26.9442 62.8587 26.7302C62.9543 26.3802 62.7742 26.0748 62.6119 25.7828C62.5164 25.95 62.4185 26.1172 62.323 26.2866C62.7353 26.2242 63.1542 26.2197 63.5678 26.2732C63.6385 26.2912 63.7131 26.2856 63.7803 26.2573C63.8476 26.2289 63.9038 26.1794 63.9404 26.1162C63.9771 26.053 63.9923 25.9795 63.9836 25.9069C63.9749 25.8342 63.9429 25.7664 63.8923 25.7137C63.4366 25.1921 63.1432 24.5456 62.7075 24.0061C62.5986 24.1911 62.4852 24.3784 62.383 24.5657C63.3077 24.8153 64.099 25.4105 64.9704 25.7939C65.2194 25.9032 65.5528 25.7248 65.4594 25.4172C65.1104 24.258 63.819 23.0498 62.752 22.5416C62.6653 22.7444 62.5786 22.9495 62.4941 23.1523C63.6922 23.4533 64.7414 24.1889 65.9396 24.4899C66.0032 24.5061 66.0701 24.5032 66.1321 24.4817C66.1941 24.4601 66.2484 24.4209 66.2884 24.3687C66.3284 24.3165 66.3522 24.2537 66.357 24.1881C66.3617 24.1225 66.3472 24.0569 66.3152 23.9994C65.6484 22.6954 64.3147 22.0779 63.4477 20.9588C63.1832 20.62 62.7142 21.097 62.9765 21.4314V21.427Z" fill="#CDCED1"/>
</g>
<g style="mix-blend-mode:multiply">
<path d="M57.197 17.5014C58.453 17.7243 59.4999 18.3797 60.5313 19.1019L60.6114 18.4911C59.2999 18.6739 57.9172 18.2192 56.6102 18.1813C56.5383 18.184 56.4691 18.2097 56.4128 18.2547C56.3564 18.2996 56.3159 18.3614 56.297 18.4311C56.2782 18.5008 56.282 18.5746 56.3079 18.642C56.3339 18.7093 56.3806 18.7666 56.4413 18.8054C57.5527 19.5567 59.0131 19.793 60.0245 20.6846C60.0734 20.4974 60.1246 20.3124 60.1735 20.1251C58.8553 20.348 57.5727 19.871 56.259 19.8175C56.1871 19.8199 56.1178 19.8454 56.0615 19.8902C56.0051 19.935 55.9646 19.9968 55.9459 20.0665C55.9272 20.1362 55.9314 20.2101 55.9577 20.2772C55.9841 20.3443 56.0312 20.4012 56.0923 20.4394C56.9025 20.8447 57.6734 21.3246 58.3952 21.8728C58.473 21.6833 58.553 21.4938 58.6308 21.3021H55.5188C55.4468 21.3049 55.3777 21.3306 55.3213 21.3755C55.265 21.4205 55.2244 21.4823 55.2056 21.552C55.1867 21.6216 55.1906 21.6955 55.2165 21.7628C55.2424 21.8302 55.2892 21.8874 55.3498 21.9263C55.8255 22.2897 56.2101 22.7511 56.6836 23.1145L56.7636 22.5037C56.3568 22.5638 55.9856 22.7399 55.5788 22.8001C55.272 22.8469 55.2831 23.2727 55.4988 23.4109C55.8922 23.6651 56.2923 23.9036 56.6836 24.1555C57.0748 24.4074 57.3815 23.81 57.0214 23.5781C56.628 23.324 56.2279 23.0877 55.8344 22.8336C55.81 23.0387 55.7833 23.2415 55.7566 23.4466C56.1634 23.3842 56.5346 23.2081 56.9414 23.1479C57.2659 23.1011 57.217 22.6864 57.0214 22.5371C56.5457 22.1737 56.1612 21.7123 55.6877 21.3489C55.6321 21.5563 55.5743 21.7636 55.5188 21.9709H58.6308C58.8953 21.9709 59.1065 21.5875 58.8664 21.4002C58.1012 20.8119 57.2825 20.2969 56.4213 19.8621C56.3657 20.0694 56.3101 20.2767 56.2523 20.4862C57.6461 20.542 58.942 20.9945 60.3424 20.7716C60.3983 20.7555 60.4491 20.7251 60.4898 20.6834C60.5304 20.6417 60.5596 20.5901 60.5744 20.5336C60.5892 20.4772 60.5891 20.4179 60.5741 20.3615C60.5592 20.3052 60.5299 20.2537 60.4891 20.2121C59.4244 19.2736 57.9328 19.015 56.7725 18.2281C56.7169 18.4354 56.6591 18.6427 56.6035 18.85C57.9884 18.8901 59.4021 19.3293 60.787 19.1354C61.1048 19.0908 61.0715 18.6695 60.867 18.5246C59.7933 17.7666 58.6908 17.0845 57.3793 16.8571C56.9592 16.7836 56.7791 17.4278 57.2015 17.5014H57.197Z" fill="#CDCED1"/>
</g>
<g style="mix-blend-mode:multiply">
<path d="M5.62424 44.314C6.30847 44.9483 7.11699 45.4327 7.99827 45.7362C8.04765 45.7495 8.0994 45.7512 8.14956 45.7414C8.19973 45.7315 8.24698 45.7103 8.28772 45.6793C8.32846 45.6484 8.36161 45.6085 8.38464 45.5627C8.40767 45.5169 8.41998 45.4665 8.42061 45.4152C8.5073 44.236 7.92491 43.3265 7.13802 42.5017C6.83793 42.1896 6.38446 42.6555 6.66677 42.9765C7.36475 43.7701 8.17832 44.0911 9.21417 43.8035C9.26966 43.7872 9.32001 43.7568 9.36034 43.7153C9.40068 43.6738 9.42962 43.6225 9.44438 43.5664C9.45914 43.5104 9.45921 43.4514 9.44458 43.3953C9.42995 43.3392 9.40112 43.2879 9.36088 43.2462C8.97633 42.9297 8.70736 42.5218 8.3228 42.2052L8.08718 42.7759H9.27197C9.33032 42.7748 9.38741 42.7586 9.43766 42.7289C9.48791 42.6991 9.52962 42.6568 9.55872 42.606C9.58782 42.5553 9.60332 42.4979 9.60371 42.4394C9.6041 42.3808 9.58937 42.3232 9.56094 42.2721C9.32087 41.8909 9.24529 41.4495 8.96744 41.0839L8.68069 41.5877C9.2653 41.6568 9.72988 41.4986 10.31 41.4384C10.3681 41.4367 10.4248 41.4201 10.4747 41.3902C10.5246 41.3603 10.566 41.318 10.595 41.2675C10.624 41.217 10.6396 41.1598 10.6403 41.1016C10.641 41.0433 10.6268 40.9858 10.599 40.9346C10.4334 40.6797 10.2942 40.4086 10.1833 40.1254C10.0589 39.7152 9.41423 39.8891 9.53871 40.3037C9.66584 40.643 9.82669 40.9686 10.0189 41.2756L10.3056 40.7718C9.75433 40.8298 9.23418 40.9948 8.67624 40.9212C8.61769 40.9212 8.56017 40.9366 8.50945 40.9659C8.45873 40.9952 8.41661 41.0375 8.38732 41.0883C8.35803 41.1391 8.34261 41.1968 8.3426 41.2555C8.34259 41.3142 8.35799 41.3719 8.38727 41.4228C8.6629 41.7884 8.74293 42.2342 8.98077 42.6132L9.26752 42.1094H8.08273C7.81377 42.1094 7.61371 42.4883 7.84711 42.68C8.23167 42.9966 8.50063 43.4045 8.88519 43.7211L9.0319 43.1615C8.21611 43.3844 7.67595 43.1214 7.13357 42.4928L6.66454 42.9765C7.3314 43.6787 7.8271 44.3965 7.75153 45.4152L8.17387 45.092C7.40132 44.8262 6.69372 44.3992 6.09771 43.8392C5.78429 43.545 5.31304 44.0175 5.62646 44.314H5.62424Z" fill="#CDCED1"/>
</g>
<g style="mix-blend-mode:multiply">
<path d="M9.85214 47.9275C9.64319 47.6399 9.40757 48.2106 9.67209 48.3733C9.89438 48.5115 10.1167 48.6631 10.3523 48.8192C10.7262 49.078 11.13 49.2906 11.5549 49.4523C11.5972 49.4641 11.6414 49.4674 11.685 49.4621C11.7287 49.4567 11.7708 49.4427 11.809 49.421C11.8472 49.3992 11.8808 49.3701 11.9077 49.3353C11.9347 49.3005 11.9545 49.2607 11.9661 49.2182C12.2128 47.8807 11.3615 46.7661 10.4101 45.9212L9.99885 46.4451C11.0325 47.0514 12.035 47.7447 13.2776 47.6801C13.366 47.6801 13.4508 47.6448 13.5134 47.5821C13.5759 47.5194 13.611 47.4344 13.611 47.3457C13.5177 46.1375 12.7841 45.326 12.0328 44.4344L11.6282 44.9605C12.384 45.4821 13.1175 45.5958 14.02 45.6002C14.0847 45.5975 14.1472 45.576 14.2 45.5385C14.2528 45.5009 14.2937 45.4488 14.3176 45.3885C14.3416 45.3282 14.3477 45.2622 14.3351 45.1985C14.3225 45.1348 14.2918 45.0762 14.2468 45.0296C13.8755 44.5837 13.6421 44.0777 13.2087 43.692L12.8886 44.2516C13.4821 44.4745 13.9822 44.4344 14.6069 44.4121C14.8291 44.4121 15.0514 44.1245 14.8958 43.9083C14.3846 43.2395 13.9022 42.6666 13.0664 42.417C13.0375 42.6399 13.0086 42.8628 12.9775 43.0746C13.4465 43.05 13.9022 42.9676 14.3712 43.0612C14.4549 43.0831 14.5437 43.0723 14.6197 43.0309C14.6957 42.9895 14.7531 42.9206 14.7802 42.8383C14.848 42.6888 14.8545 42.5186 14.7984 42.3643C14.7423 42.2101 14.628 42.0841 14.4802 42.0135L14.3112 42.6376C15.0003 42.7157 15.2893 42.5908 15.7339 42.0937C16.0184 41.7727 15.5494 41.2979 15.2604 41.6211C15.1523 41.7646 15.0053 41.8736 14.8369 41.9353C14.6686 41.997 14.486 42.0087 14.3112 41.9689C13.9667 41.9288 13.88 42.4326 14.1445 42.5908V42.6599L14.5557 42.4259C14.0345 42.3553 13.5064 42.3515 12.9842 42.4147C12.9043 42.4158 12.8274 42.4456 12.7676 42.4986C12.7077 42.5517 12.6689 42.6246 12.6581 42.704C12.6474 42.7834 12.6654 42.864 12.7089 42.9312C12.7524 42.9984 12.8185 43.0477 12.8952 43.0701C13.5621 43.2685 13.9244 43.7233 14.3268 44.2538L14.6135 43.7522C14.0711 43.7723 13.5932 43.8124 13.0731 43.614C13.0024 43.596 12.9278 43.6016 12.8605 43.63C12.7933 43.6583 12.7371 43.7078 12.7004 43.7711C12.6637 43.8343 12.6486 43.9078 12.6573 43.9804C12.666 44.053 12.698 44.1208 12.7485 44.1736C13.1731 44.5525 13.4154 45.0652 13.7866 45.5111L14.0222 44.9404C13.2509 44.9404 12.6174 44.8423 11.9683 44.392C11.6349 44.1691 11.3348 44.6439 11.5638 44.9159C12.1817 45.6515 12.8686 46.347 12.9464 47.3546L13.2798 47.0202C12.1684 47.0782 11.257 46.4161 10.3367 45.8767C10.0166 45.6894 9.64319 46.1464 9.93217 46.4027C10.6813 47.0715 11.5282 47.9632 11.3304 49.0488L11.7394 48.8259C10.9547 48.5584 10.3101 47.6823 9.48315 47.582C9.42453 47.5803 9.36659 47.5948 9.31563 47.6239C9.26467 47.653 9.22265 47.6955 9.19417 47.7469C9.15449 47.8341 9.14217 47.9313 9.15884 48.0257C9.17552 48.12 9.2204 48.2071 9.28753 48.2753C9.53872 48.6208 10.1189 48.2864 9.86326 47.9386L9.85214 47.9275Z" fill="#CDCED1"/>
</g>
<g style="mix-blend-mode:multiply">
<path d="M65.5573 61.2558C65.7929 62.4373 66.5331 63.3067 67.42 64.078C67.5001 63.8885 67.5779 63.699 67.6557 63.5073H64.6926C64.6198 63.5085 64.5494 63.5334 64.492 63.5782C64.4345 63.623 64.3932 63.6853 64.3741 63.7557C64.355 63.8261 64.3593 63.9009 64.3863 63.9686C64.4133 64.0364 64.4615 64.0936 64.5236 64.1315C65.6062 64.8002 66.8243 65.2082 68.0113 65.6518C68.0424 65.4289 68.0713 65.206 68.1002 64.9942C66.6154 64.9607 64.3458 64.3767 63.5145 66.0508C63.4901 66.0955 63.476 66.1451 63.4732 66.1959C63.4703 66.2468 63.4787 66.2976 63.4979 66.3448C63.517 66.3919 63.5464 66.4342 63.5839 66.4686C63.6214 66.503 63.666 66.5285 63.7145 66.5435C64.7548 66.938 65.8218 67.0094 66.9154 67.1498V66.4811C65.5173 66.383 64.2791 66.9759 63.2699 67.9144C63.2358 67.9517 63.2104 67.9961 63.1956 68.0444C63.1808 68.0928 63.177 68.1439 63.1845 68.1939C63.192 68.2439 63.2105 68.2916 63.2387 68.3335C63.267 68.3754 63.3042 68.4105 63.3477 68.436C64.4058 69.0647 65.5706 69.2074 66.7754 69.2252V68.5564C65.3305 68.5386 63.4522 68.2599 62.6342 69.7624C62.6094 69.8069 62.595 69.8563 62.5919 69.9072C62.5889 69.958 62.5972 70.0088 62.6165 70.0559C62.6357 70.1031 62.6652 70.1452 62.7029 70.1793C62.7407 70.2134 62.7855 70.2385 62.8343 70.2528C63.8284 70.5334 64.8538 70.6877 65.8863 70.712C65.8574 70.4891 65.8285 70.2662 65.7973 70.0433C64.8867 70.2077 64.009 70.5202 63.1988 70.9684C63.1432 71.0023 63.0985 71.0517 63.0704 71.1105C63.0422 71.1694 63.0318 71.2352 63.0402 71.3C63.0487 71.3647 63.0758 71.4256 63.1181 71.4751C63.1605 71.5247 63.2163 71.5609 63.2788 71.5792C64.0884 71.7502 64.9107 71.8538 65.7373 71.8891C66.1686 71.9002 66.1686 71.2314 65.7373 71.2203C64.9705 71.1889 64.2077 71.0934 63.4567 70.935L63.5367 71.5458C64.2993 71.1272 65.1254 70.8373 65.9818 70.6875C66.3619 70.6162 66.2597 70.0366 65.8929 70.0321C64.9201 70.0045 63.9545 69.8547 63.0188 69.5863C63.0854 69.749 63.1499 69.914 63.2166 70.0767C63.8835 68.8574 65.6195 69.1851 66.7732 69.2029C66.8616 69.2029 66.9464 69.1677 67.009 69.105C67.0715 69.0422 67.1066 68.9572 67.1066 68.8685C67.1066 68.7798 67.0715 68.6948 67.009 68.6321C66.9464 68.5694 66.8616 68.5341 66.7732 68.5341C65.6751 68.5185 64.6437 68.4071 63.6812 67.8364C63.7034 68.0125 63.7256 68.1864 63.7501 68.3625C64.6392 67.5332 65.6929 67.0383 66.9221 67.1231C67.3667 67.152 67.3356 66.5056 66.9221 66.4543C65.8907 66.3205 64.8793 66.2314 63.899 65.8703L64.0968 66.3629C64.7637 65.0143 66.911 65.6094 68.098 65.6362C68.4959 65.6362 68.5248 65.1056 68.1869 64.9786C67.051 64.555 65.8929 64.1716 64.8526 63.5274C64.7948 63.7347 64.7393 63.942 64.6837 64.1493H67.6468C67.7122 64.1482 67.7759 64.128 67.83 64.0911C67.8841 64.0542 67.9263 64.0022 67.9513 63.9415C67.9764 63.8809 67.9832 63.8142 67.9709 63.7498C67.9587 63.6853 67.9279 63.6258 67.8824 63.5787C67.0755 62.8787 66.4064 62.1297 66.1908 61.0508C66.1063 60.6294 65.4639 60.8078 65.5484 61.2291L65.5573 61.2558Z" fill="#CDCED1"/>
</g>
<g style="mix-blend-mode:multiply">
<path d="M74.2642 63.8172C73.5374 63.7102 71.9925 63.6701 71.7813 64.6821C71.559 65.7566 72.7838 65.9773 73.584 65.9594V65.2907C72.5513 65.3587 71.563 65.737 70.7477 66.3763C70.7046 66.403 70.6679 66.4391 70.6405 66.4818C70.6131 66.5246 70.5955 66.5729 70.5891 66.6234C70.5827 66.6738 70.5877 66.725 70.6036 66.7733C70.6195 66.8216 70.6459 66.8657 70.681 66.9024C71.6101 67.8409 72.8172 67.6179 74.0286 67.5957C73.973 67.3861 73.9153 67.1788 73.8597 66.9715C73.0926 67.269 72.4069 67.745 71.8591 68.3603C71.8139 68.4077 71.7834 68.4673 71.7713 68.5318C71.7592 68.5963 71.766 68.663 71.791 68.7236C71.8159 68.7843 71.8579 68.8364 71.9118 68.8736C71.9658 68.9108 72.0293 68.9315 72.0947 68.9332C72.6416 68.9621 73.1795 69.058 73.7241 69.0803L73.6374 68.4249C72.8372 68.6055 72.2726 69.0023 71.6368 69.4972C71.4323 69.6554 71.4012 70.0455 71.7168 70.1102C72.2831 70.2193 72.8585 70.2731 73.4351 70.2707C73.5235 70.2707 73.6084 70.2354 73.6709 70.1727C73.7334 70.11 73.7685 70.025 73.7685 69.9363C73.7685 69.8476 73.7334 69.7626 73.6709 69.6999C73.6084 69.6372 73.5235 69.6019 73.4351 69.6019C72.9183 69.6082 72.4022 69.5619 71.8947 69.4637L71.9747 70.0745C72.5638 69.6287 73.075 69.2386 73.8197 69.0691C74.1998 68.9822 74.0953 68.4271 73.7308 68.4115C73.1862 68.3892 72.6482 68.2934 72.1014 68.2644C72.1814 68.4539 72.2592 68.6434 72.337 68.8351C72.8466 68.2643 73.4843 67.8233 74.1976 67.5488C74.511 67.4129 74.3398 66.9202 74.0286 66.9269C73.0461 66.9447 71.9169 67.2033 71.1522 66.4298L71.0855 66.9536C71.8001 66.3784 72.6706 66.032 73.584 65.9594C74.0108 65.9371 74.0153 65.2907 73.584 65.2907C73.4107 65.2907 72.2103 65.3308 72.4437 64.8203C72.6771 64.3098 73.6663 64.4012 74.0886 64.4614C74.511 64.5216 74.6888 63.8796 74.2642 63.8172Z" fill="#CDCED1"/>
</g>
<g style="mix-blend-mode:multiply">
<path d="M56.9926 78.3849C56.1768 79.5173 55.6855 80.9306 54.4452 81.6841L54.9342 82.0608C55.1387 80.7501 55.7944 79.5731 56.2679 78.347C56.4235 77.9435 55.7789 77.7719 55.6255 78.1687C55.1542 79.3747 54.4652 80.574 53.4871 81.4389L54.0562 81.6752C53.9726 80.8497 54.1658 80.0198 54.6052 79.3167C54.8275 78.9333 54.2807 78.648 54.0295 78.9801C53.7116 79.4037 53.3093 79.747 52.9914 80.1683L53.6005 80.2485C53.4315 79.8272 53.6672 79.5329 53.8628 79.1696C54.0584 78.8062 53.4938 78.454 53.287 78.8308C52.9758 79.4059 52.6958 79.7737 52.9581 80.4269C52.9771 80.4889 53.0135 80.5441 53.063 80.5859C53.1124 80.6278 53.1728 80.6545 53.2369 80.663C53.3011 80.6714 53.3663 80.6612 53.4248 80.6336C53.4833 80.606 53.5327 80.5621 53.5671 80.5071C53.885 80.0836 54.2873 79.7403 54.6052 79.3167L54.0295 78.9801C53.5273 79.7838 53.3024 80.7308 53.3893 81.6752C53.391 81.7408 53.4116 81.8045 53.4487 81.8586C53.4858 81.9127 53.5377 81.9548 53.5982 81.9798C53.6587 82.0049 53.7252 82.0117 53.7895 81.9996C53.8538 81.9875 53.9133 81.9569 53.9606 81.9115C55.0253 80.9685 55.7566 79.66 56.2679 78.3448L55.6255 78.1665C55.152 79.3925 54.4963 80.5695 54.2918 81.8825C54.2756 81.9463 54.2785 82.0134 54.2999 82.0756C54.3214 82.1377 54.3606 82.1922 54.4126 82.2323C54.4646 82.2724 54.5273 82.2963 54.5927 82.3011C54.6581 82.3059 54.7235 82.2913 54.7808 82.2592C56.1412 81.4344 56.6747 79.961 57.5683 78.7215C57.8217 78.3715 57.2415 78.0372 56.9926 78.3827V78.3849Z" fill="#CDCED1"/>
</g>
<g style="mix-blend-mode:multiply">
<path d="M53.1047 88.1264C52.689 89.241 52.2289 90.5317 51.1842 91.196L51.6754 91.3944C51.4531 90.1059 51.9733 88.9178 52.529 87.7876C52.7202 87.4064 52.1711 87.0743 51.9533 87.451C51.3623 88.522 50.6858 89.5434 49.9305 90.505L50.4995 90.7413C50.5462 89.8496 50.9441 88.9914 51.2309 88.1554C51.3576 87.7787 50.8218 87.5981 50.6196 87.8968C50.3773 88.258 50.0794 88.891 49.7149 89.1273L50.1194 89.1808L50.1061 89.1675C49.8171 88.8465 49.3481 89.319 49.6348 89.64L49.6482 89.6534C49.6998 89.7058 49.7674 89.7395 49.8402 89.7492C49.913 89.7589 49.987 89.744 50.0505 89.7069C50.5329 89.3926 50.8819 88.6993 51.1953 88.2334L50.5862 87.9771C50.2795 88.8688 49.8816 89.776 49.8327 90.7413C49.8343 90.8069 49.855 90.8706 49.892 90.9247C49.9291 90.9788 49.9811 91.0209 50.0416 91.0459C50.1021 91.0709 50.1686 91.0778 50.2329 91.0657C50.2972 91.0535 50.3566 91.0229 50.4039 90.9776C51.1963 89.973 51.9069 88.9062 52.529 87.7876L51.9533 87.451C51.3064 88.7617 50.7663 90.0881 51.0308 91.5728C51.0446 91.6222 51.0695 91.6678 51.1036 91.7061C51.1376 91.7444 51.18 91.7744 51.2274 91.7937C51.2748 91.8131 51.326 91.8213 51.3771 91.8178C51.4281 91.8143 51.4777 91.7991 51.522 91.7734C52.7313 91.0043 53.2648 89.591 53.7449 88.3025C53.8961 87.8991 53.2514 87.7252 53.1003 88.1264H53.1047Z" fill="#CDCED1"/>
</g>
<g style="mix-blend-mode:multiply">
<path d="M2.80566 82.4799C2.01876 83.3604 1.70979 84.3703 1.672 85.5406C1.67219 85.592 1.6842 85.6427 1.7071 85.6887C1.73 85.7347 1.76317 85.7747 1.80403 85.8058C1.84488 85.8369 1.89233 85.858 1.94268 85.8677C1.99303 85.8774 2.04493 85.8753 2.09434 85.8616C2.89145 85.5652 3.60366 85.0767 4.16828 84.4394L3.61034 84.1139C3.48364 84.6043 3.4414 85.1081 3.31247 85.5985C3.29789 85.6556 3.29837 85.7154 3.31386 85.7722C3.32936 85.829 3.35934 85.8807 3.40084 85.9223C3.44235 85.9639 3.49395 85.994 3.55056 86.0095C3.60717 86.0251 3.66685 86.0256 3.72371 86.0109C4.43007 85.8684 5.10677 85.6053 5.72429 85.233L5.26638 84.776C4.98629 85.3221 4.94184 85.9039 4.78846 86.4902C4.77566 86.5399 4.77428 86.5918 4.78443 86.6421C4.79457 86.6924 4.81596 86.7397 4.847 86.7805C4.87804 86.8213 4.91791 86.8545 4.9636 86.8776C5.0093 86.9007 5.05962 86.913 5.11077 86.9138C5.96545 86.8775 6.79336 86.6043 7.50258 86.1246L7.04467 85.6676C6.84461 86.1135 6.80015 86.5593 6.6001 87.0052C6.57167 87.0563 6.55694 87.1139 6.55733 87.1724C6.55772 87.231 6.57322 87.2884 6.60232 87.3391C6.63142 87.3899 6.67313 87.4322 6.72338 87.4619C6.77363 87.4917 6.83072 87.5079 6.88907 87.509C7.86002 87.4819 8.79882 87.1541 9.57652 86.5705L9.17862 86.0466C8.41174 86.6998 7.8449 87.4265 7.6115 88.4229C7.59687 88.4796 7.59726 88.5392 7.61263 88.5957C7.62799 88.6523 7.65781 88.7038 7.69912 88.7452C7.74043 88.7867 7.79181 88.8166 7.84818 88.832C7.90455 88.8474 7.96395 88.8478 8.02051 88.8331C8.84742 88.657 9.57652 88.5611 10.2434 88.0061L9.68544 87.6806C9.57652 87.9749 9.49872 88.2758 9.3898 88.5723C9.37771 88.6146 9.37418 88.6589 9.37942 88.7026C9.38467 88.7463 9.39857 88.7885 9.42032 88.8267C9.44207 88.8649 9.47122 88.8984 9.50606 88.9251C9.5409 88.9519 9.58073 88.9714 9.6232 88.9825C10.5457 89.1207 11.337 88.7595 12.0217 88.1532C12.344 87.8679 11.8705 87.3953 11.5504 87.6806C11.0636 88.1131 10.4746 88.4385 9.7988 88.3382L10.0211 88.7484C10.13 88.4541 10.2078 88.1532 10.319 87.8567C10.4457 87.5134 9.98997 87.3395 9.76102 87.5312C9.18974 88.0105 8.52065 88.0417 7.83379 88.1889L8.2428 88.6013C8.44952 87.7096 8.95634 87.0988 9.63876 86.5192C9.92551 86.274 9.54095 85.768 9.2342 85.9931C8.5588 86.5137 7.73817 86.8099 6.88685 86.8402L7.1736 87.3418C7.37366 86.8959 7.41811 86.4501 7.61817 86.0043C7.74487 85.7278 7.46702 85.3355 7.1736 85.5473C6.56335 85.9679 5.84821 86.2096 5.10855 86.245C5.21525 86.3854 5.33084 86.5281 5.43087 86.6686C5.56646 86.1447 5.59091 85.603 5.83988 85.1081C5.98436 84.8272 5.68205 84.4594 5.3953 84.6511C4.82673 84.9938 4.20326 85.2352 3.55254 85.3645L3.96377 85.7769C4.09048 85.2865 4.13271 84.7827 4.25942 84.29C4.33944 83.9824 3.92821 83.7015 3.70148 83.9645C3.22119 84.5232 2.61017 84.9537 1.92318 85.2173L2.34553 85.5406C2.37665 84.5508 2.61672 83.6993 3.2858 82.9525C3.57033 82.6315 3.1013 82.1567 2.81233 82.4799H2.80566Z" fill="#CDCED1"/>
</g>
<g style="mix-blend-mode:multiply">
<path d="M1.23854 88.8688C0.909382 89.7574 0.705868 90.6878 0.633919 91.633C0.633623 91.677 0.642046 91.7206 0.658698 91.7613C0.67535 91.802 0.699899 91.839 0.73092 91.8701C0.76194 91.9012 0.798815 91.9258 0.839402 91.9425C0.879989 91.9592 0.92348 91.9676 0.967349 91.9673C2.17214 91.8648 2.91236 91.0578 3.72148 90.2353L3.16577 89.9098C2.97976 90.4434 2.83121 90.9894 2.72119 91.5438C2.70608 91.6007 2.7061 91.6605 2.72125 91.7174C2.7364 91.7742 2.76616 91.8261 2.80754 91.8679C2.84893 91.9096 2.9005 91.9397 2.95712 91.9552C3.01373 91.9707 3.07341 91.971 3.1302 91.9562C3.82374 91.7623 4.35278 91.5973 4.9085 91.1269L4.35056 90.8015C4.21052 91.3387 4.19273 91.896 4.05491 92.4355C4.0405 92.4923 4.04102 92.5518 4.05642 92.6084C4.07182 92.6649 4.10158 92.7165 4.14279 92.758C4.184 92.7996 4.23525 92.8297 4.29153 92.8454C4.34782 92.8612 4.40721 92.862 4.46392 92.8479C5.27527 92.7119 5.8132 92.6562 6.38893 92.0186L5.86655 91.6196C5.62871 91.9517 5.51089 92.3285 5.27305 92.6606C5.09522 92.9103 5.38864 93.2179 5.65093 93.151C5.85544 93.0975 6.29557 92.9393 6.48896 93.0619L6.42227 92.538L6.36225 92.5915C6.04438 92.8835 6.51785 93.3561 6.8335 93.0641L6.89352 93.0106C6.92899 92.9741 6.95578 92.93 6.97191 92.8817C6.98804 92.8334 6.99309 92.782 6.98668 92.7314C6.98027 92.6809 6.96257 92.6324 6.93489 92.5897C6.90722 92.5469 6.87028 92.511 6.82683 92.4845C6.46006 92.2616 5.85988 92.4065 5.4731 92.5068L5.84877 92.9972C6.08662 92.6651 6.20443 92.2883 6.44228 91.9562C6.68012 91.6241 6.17109 91.2741 5.91768 91.5527C5.44643 92.0743 4.92628 92.1033 4.28609 92.2081L4.69732 92.6205C4.83514 92.081 4.85515 91.5237 4.99297 90.9865C5.01016 90.916 5.00419 90.8419 4.97594 90.7751C4.94769 90.7083 4.89868 90.6524 4.8362 90.6158C4.77372 90.5792 4.70113 90.5639 4.62924 90.572C4.55735 90.5802 4.49001 90.6114 4.43725 90.661C3.93488 91.0868 3.52809 91.1559 2.95237 91.3164L3.3636 91.7288C3.47362 91.1744 3.62217 90.6284 3.80818 90.0948C3.93933 89.7716 3.4703 89.5465 3.25024 89.7694C2.59894 90.4381 1.95653 91.2206 0.967349 91.3053L1.30078 91.6397C1.37326 90.7548 1.56853 89.8845 1.88095 89.0538C2.01654 88.6436 1.37413 88.4675 1.23854 88.8755V88.8688Z" fill="#CDCED1"/>
</g>
<g style="mix-blend-mode:multiply">
<path d="M37.8425 97.0432C37.5291 98.354 37.1912 99.9189 37.8759 101.165C37.902 101.209 37.9376 101.246 37.9801 101.273C38.0225 101.301 38.0707 101.319 38.1209 101.325C38.1712 101.332 38.2222 101.327 38.2703 101.31C38.3183 101.294 38.362 101.267 38.3982 101.232C39.2592 100.421 39.9342 99.4322 40.3766 98.3339L39.7564 98.1645C39.7409 99.3504 39.6719 100.503 39.9165 101.673C39.9331 101.729 39.9636 101.779 40.0053 101.82C40.0469 101.86 40.0982 101.889 40.1542 101.904C40.2103 101.919 40.2691 101.919 40.3252 101.904C40.3813 101.889 40.4326 101.861 40.4744 101.82C41.1613 101.223 41.548 100.42 41.8926 99.5912L41.2502 99.4128C41.1435 100.157 41.3435 100.842 41.3858 101.584C41.3878 101.649 41.4086 101.712 41.4455 101.766C41.4825 101.82 41.5341 101.862 41.5942 101.886C41.6543 101.911 41.7203 101.918 41.7842 101.907C41.8482 101.895 41.9074 101.865 41.9548 101.82C42.4661 101.33 42.9751 100.877 43.3419 100.26L42.7328 100.001C42.6217 100.779 42.6973 101.537 42.7195 102.32C42.7215 102.385 42.7423 102.448 42.7793 102.502C42.8162 102.555 42.8679 102.597 42.9279 102.622C42.988 102.647 43.054 102.654 43.118 102.642C43.1819 102.631 43.2412 102.601 43.2885 102.556C43.7442 102.195 44.3155 102.028 44.7712 101.664L44.2133 101.339C43.991 101.967 44.0288 102.552 44.0532 103.211C44.0532 103.408 44.2755 103.619 44.4756 103.535C45.4759 103.122 46.1783 102.351 46.9941 101.664L46.4361 101.517C46.754 102.322 46.9296 102.304 47.6676 101.865L47.1652 101.577V102.023C47.1667 102.082 47.1831 102.139 47.2129 102.189C47.2428 102.239 47.285 102.28 47.3355 102.309C47.386 102.338 47.4432 102.353 47.5013 102.354C47.5595 102.354 47.6168 102.339 47.6676 102.311C48.0384 102.116 48.3641 101.845 48.6234 101.515C48.9146 101.198 48.4434 100.724 48.1522 101.042C47.9319 101.33 47.652 101.565 47.3319 101.733L47.8321 102.023V101.577C47.8315 101.519 47.8157 101.462 47.7863 101.411C47.7569 101.361 47.7148 101.319 47.6644 101.29C47.6139 101.26 47.5567 101.245 47.4984 101.244C47.4401 101.244 47.3828 101.259 47.3319 101.288C47.0496 101.455 47.2475 101.765 47.0808 101.339C47.0636 101.284 47.0328 101.234 46.9911 101.194C46.9494 101.154 46.8983 101.125 46.8425 101.11C46.7867 101.095 46.728 101.095 46.6721 101.109C46.6162 101.124 46.5648 101.152 46.5228 101.192C45.8115 101.791 45.1758 102.529 44.3 102.888L44.7223 103.211C44.7001 102.623 44.6489 102.083 44.8601 101.517C44.989 101.167 44.5334 101.007 44.3022 101.192C43.8576 101.553 43.2774 101.72 42.8195 102.083L43.3886 102.32C43.3686 101.602 43.2752 100.895 43.3886 100.18C43.4397 99.823 42.9885 99.5733 42.7795 99.9211C42.4394 100.487 41.9659 100.889 41.4969 101.341L42.066 101.577C42.0282 100.909 41.8126 100.24 41.9059 99.5845C41.9266 99.5 41.9136 99.4108 41.8697 99.3358C41.8259 99.2607 41.7546 99.2058 41.671 99.1826C41.5875 99.1594 41.4982 99.1698 41.4221 99.2115C41.346 99.2532 41.2891 99.3231 41.2635 99.4061C40.9612 100.133 40.6189 100.817 40.0165 101.341L40.5722 101.488C40.3499 100.374 40.421 99.2813 40.4366 98.1578C40.4366 97.8457 39.9542 97.6763 39.8142 97.9906C39.3519 99.0361 38.8006 99.9746 37.9403 100.746L38.4649 100.813C37.8781 99.745 38.2315 98.3205 38.4983 97.2082C38.5983 96.7891 37.9559 96.6107 37.8559 97.0298L37.8425 97.0432Z" fill="#CDCED1"/>
</g>
<g style="mix-blend-mode:multiply">
<path d="M37.249 104.473C37.0845 105.289 37.0467 106.245 37.7803 106.787C38.5138 107.329 39.2496 106.118 39.4874 105.623L38.8784 105.365C38.7961 105.929 38.9562 106.377 39.0162 106.941C39.0182 107.006 39.039 107.069 39.0759 107.123C39.1129 107.176 39.1645 107.218 39.2246 107.243C39.2847 107.268 39.3507 107.275 39.4146 107.263C39.4786 107.252 39.5378 107.222 39.5852 107.177C39.9653 106.856 40.3966 106.618 40.77 106.285L40.201 106.049C40.2343 106.399 40.3165 106.738 40.3499 107.088C40.351 107.154 40.3712 107.217 40.408 107.272C40.4448 107.326 40.4966 107.368 40.5571 107.393C40.6176 107.418 40.684 107.425 40.7483 107.413C40.8126 107.401 40.8719 107.37 40.919 107.324C41.3791 106.918 41.8281 106.597 42.1549 106.069L41.5347 105.9C41.508 106.172 41.4369 106.433 41.3991 106.702C41.3613 106.972 41.6214 107.26 41.8881 107.079C42.2213 106.902 42.5685 106.753 42.9262 106.633L42.4238 106.346V107.683C42.4259 107.748 42.4466 107.811 42.4836 107.865C42.5206 107.919 42.5722 107.961 42.6323 107.985C42.6924 108.01 42.7583 108.017 42.8223 108.006C42.8863 107.994 42.9455 107.964 42.9929 107.919C43.3241 107.65 43.6975 107.447 44.031 107.177C44.3644 106.907 43.8887 106.435 43.5597 106.704C43.2307 106.974 42.8528 107.177 42.5216 107.447L43.0907 107.683V106.346C43.089 106.287 43.0725 106.23 43.0426 106.18C43.0128 106.13 42.9707 106.089 42.9203 106.06C42.8699 106.031 42.813 106.015 42.7548 106.014C42.6967 106.014 42.6394 106.028 42.5883 106.056C42.231 106.174 41.8844 106.324 41.5525 106.502L42.0415 106.881C42.0882 106.551 42.1704 106.232 42.2015 105.9C42.2327 105.568 41.7436 105.469 41.5791 105.73C41.2791 106.216 40.8634 106.486 40.4477 106.845L41.0168 107.081C40.9834 106.731 40.9012 106.392 40.8678 106.042C40.8658 105.977 40.845 105.914 40.808 105.86C40.7711 105.807 40.7195 105.765 40.6594 105.74C40.5993 105.715 40.5333 105.708 40.4694 105.72C40.4054 105.731 40.3462 105.761 40.2988 105.806C39.9231 106.136 39.4941 106.377 39.114 106.698L39.683 106.934C39.6364 106.488 39.4607 105.973 39.523 105.536C39.5719 105.193 39.0895 104.906 38.9117 105.278C38.8339 105.443 38.2248 106.778 37.8736 105.817C37.7425 105.456 37.8203 105.004 37.8914 104.645C37.9759 104.223 37.3335 104.043 37.249 104.466V104.473Z" fill="#CDCED1"/>
</g>
<g style="mix-blend-mode:multiply">
<path d="M57.1659 129.529C57.0969 128.736 57.1463 127.936 57.3127 127.157C57.3971 126.711 58.1485 124.531 58.7797 125.626C59.411 126.72 59.0309 128.49 59.0198 129.678C59.0198 130.124 59.6333 130.091 59.6867 129.678C59.8231 128.363 60.2638 127.097 60.9737 125.982H60.398C61.2249 127.097 60.9648 128.522 60.9448 129.826C60.9448 130.222 61.4761 130.256 61.6006 129.915C61.9807 128.863 62.2274 127.663 63.1455 126.941L62.5875 126.794C62.8343 128.096 62.7365 129.402 62.7231 130.717C62.7231 131.029 63.2099 131.203 63.3455 130.887C63.7523 129.937 64.1524 128.972 65.0038 128.332L64.5147 128.131C64.7637 129.184 64.6637 130.242 64.6503 131.312C64.6523 131.385 64.6774 131.455 64.7219 131.511C64.7664 131.568 64.8281 131.609 64.8977 131.628C64.9672 131.647 65.0411 131.643 65.1082 131.617C65.1754 131.591 65.2323 131.543 65.2705 131.482C65.6706 130.715 66.1063 129.939 66.9999 129.699L66.5887 129.464C66.8599 130.479 66.6665 131.448 66.293 132.407L66.9355 132.585C67.2452 131.391 67.9816 130.351 69.0049 129.665L68.5159 129.464C68.6404 130.318 68.5159 131.192 68.5026 132.05C68.5026 132.483 69.1694 132.481 69.1694 132.05C69.1872 131.125 69.2917 130.207 69.1583 129.286C69.1445 129.237 69.1197 129.192 69.0857 129.154C69.0518 129.115 69.0096 129.086 68.9624 129.067C68.9151 129.047 68.8642 129.039 68.8134 129.043C68.7626 129.047 68.7133 129.062 68.6693 129.088C67.4976 129.867 66.652 131.051 66.293 132.414C66.1708 132.837 66.7821 132.984 66.9355 132.592C67.3533 131.518 67.5334 130.421 67.2311 129.293C67.2044 129.21 67.1471 129.141 67.071 129.099C66.9949 129.058 66.9058 129.047 66.8221 129.07C65.7551 129.355 65.1838 130.22 64.6948 131.156L65.3172 131.326C65.3328 130.191 65.4195 129.081 65.1572 127.966C65.1434 127.917 65.1186 127.872 65.0846 127.834C65.0506 127.796 65.0084 127.766 64.9612 127.747C64.914 127.728 64.863 127.72 64.8122 127.723C64.7614 127.727 64.7121 127.742 64.6681 127.768C63.7123 128.488 63.2344 129.48 62.7698 130.561L63.39 130.731C63.4033 129.351 63.49 127.993 63.2299 126.629C63.1788 126.355 62.8498 126.341 62.6742 126.482C61.6673 127.275 61.3738 128.597 60.9582 129.75L61.6117 129.839C61.6339 128.41 61.8784 126.881 60.9737 125.657C60.9435 125.608 60.9012 125.567 60.8508 125.539C60.8004 125.51 60.7436 125.496 60.6859 125.496C60.6281 125.496 60.5713 125.51 60.5209 125.539C60.4706 125.567 60.4282 125.608 60.398 125.657C59.5911 126.872 59.2043 128.254 59.0198 129.692H59.6867C59.6867 128.557 60.258 125.309 58.8109 124.765C56.6525 123.952 56.3657 128.386 56.4991 129.542C56.5458 129.966 57.2148 129.97 57.1659 129.542V129.529Z" fill="#CDCED1"/>
</g>
<g style="mix-blend-mode:multiply">
<path d="M58.204 119.721C58.2262 118.57 58.3262 117.193 58.8219 116.154C59.1154 115.53 59.8956 117.714 59.9334 117.875C60.0934 118.47 60.2001 119.076 60.3602 119.672C60.4402 119.968 60.9559 120.013 61.0026 119.672C61.0937 119.023 61.2137 118.319 61.6339 117.792C62.1718 117.124 62.5408 119.13 62.583 119.375C62.6453 119.745 63.2721 119.661 63.2388 119.286C63.1547 118.609 63.2601 117.922 63.5433 117.302C64.159 116.023 64.777 117.494 64.9548 118.194C65.046 118.553 65.6484 118.488 65.6084 118.107C65.5261 117.327 65.6417 116.662 66.253 116.114L65.7284 116.045C66.2989 116.84 66.7953 117.686 67.211 118.573C67.3622 118.878 67.8312 118.722 67.8312 118.403C67.8104 117.588 67.8565 116.772 67.969 115.965L67.3578 116.045C67.8868 116.792 68.0646 117.605 68.2136 118.497C68.278 118.878 68.8671 118.773 68.8693 118.408C68.8654 118.036 68.9111 117.666 69.0049 117.307H68.3625C68.5157 117.656 68.6118 118.028 68.647 118.408C68.6804 118.834 69.3472 118.838 69.3139 118.408C69.2804 117.968 69.1761 117.537 69.0049 117.13C68.8849 116.843 68.4581 116.78 68.3625 117.13C68.2505 117.547 68.1966 117.977 68.2024 118.408L68.8582 118.319C68.6959 117.369 68.4981 116.506 67.9335 115.713C67.7868 115.503 67.3778 115.476 67.3244 115.793C67.1999 116.659 67.1464 117.533 67.1644 118.408L67.7868 118.238C67.3728 117.347 66.878 116.495 66.3086 115.695C66.282 115.652 66.2463 115.615 66.204 115.588C66.1616 115.56 66.1137 115.543 66.0637 115.536C66.0137 115.529 65.9629 115.534 65.9149 115.549C65.8669 115.565 65.8229 115.591 65.7862 115.626C65.066 116.272 64.8481 117.148 64.9459 118.093L65.6017 118.004C65.3927 117.188 64.8793 115.686 63.7434 116.165C62.6564 116.624 62.4852 118.287 62.5764 119.286L63.2299 119.197C63.121 118.528 62.832 116.769 61.7695 116.968C60.7469 117.164 60.4802 118.66 60.3646 119.489H61.007C60.7158 118.397 60.5135 115.336 58.9042 115.343C57.5838 115.343 57.5527 118.854 57.5371 119.727C57.5371 120.158 58.204 120.158 58.204 119.727V119.721Z" fill="#CDCED1"/>
</g>
<g style="mix-blend-mode:multiply">
<path d="M55.8322 111.992C55.8144 110.806 55.1009 107.692 56.5102 107.088C57.4505 106.691 58.4908 110.082 58.7686 110.666C58.9153 110.976 59.3932 110.815 59.3888 110.499C59.3777 109.19 59.2532 107.864 59.5266 106.573L58.9153 106.653C59.4562 107.416 59.9512 108.21 60.398 109.032C60.5336 109.255 60.9581 109.255 61.007 108.951C61.1493 108.113 61.1626 107.262 61.3049 106.426L60.6936 106.506C61.0359 106.952 61.4449 107.349 61.7317 107.844C61.8873 108.111 62.3986 108.017 62.3541 107.674C62.2585 106.874 62.463 106.094 62.5008 105.296L61.8806 105.465C62.417 106.179 62.9114 106.923 63.3611 107.694C63.4031 107.763 63.4682 107.814 63.5445 107.838C63.6209 107.863 63.7034 107.859 63.7773 107.828C63.8511 107.797 63.9114 107.74 63.9471 107.668C63.9829 107.596 63.9919 107.514 63.9723 107.436C63.8879 106.932 64.0879 106.395 64.1324 105.891L63.51 106.06C63.8345 106.667 64.2235 107.235 64.5481 107.844C64.7503 108.223 65.3261 107.886 65.1238 107.505C64.7992 106.898 64.4103 106.33 64.0857 105.721C63.9168 105.407 63.4922 105.581 63.4655 105.891C63.4122 106.49 63.2299 107.005 63.3277 107.614L63.9368 107.355C63.4865 106.584 62.9922 105.84 62.4563 105.126C62.4176 105.065 62.3605 105.019 62.2934 104.993C62.2262 104.966 62.1525 104.963 62.0831 104.982C62.0136 105 61.952 105.041 61.9072 105.098C61.8623 105.154 61.8367 105.223 61.8339 105.296C61.7962 106.1 61.5917 106.867 61.6872 107.674L62.3074 107.505C62.0162 107.003 61.6161 106.629 61.2693 106.167C61.1182 105.967 60.7158 105.926 60.6603 106.247C60.5202 107.086 60.5069 107.937 60.3646 108.773L60.9737 108.693C60.5259 107.878 60.0309 107.089 59.491 106.332C59.3354 106.123 58.9487 106.096 58.882 106.412C58.5952 107.766 58.7108 109.141 58.7219 110.514L59.3466 110.345C58.7931 109.183 58.1195 106.109 56.3346 106.459C54.3518 106.849 55.1476 110.717 55.1676 111.999C55.1676 112.429 55.8344 112.431 55.8344 111.999L55.8322 111.992Z" fill="#CDCED1"/>
</g>
<g style="mix-blend-mode:multiply">
<path d="M53.267 104.103C52.7313 102.975 52.3223 101.756 52.5601 100.496L52.0711 100.697C52.9891 101.381 53.5626 102.373 54.025 103.401C54.1962 103.778 54.6919 103.481 54.6363 103.142C54.4807 102.028 54.2317 100.94 54.2028 99.8141L53.8694 100.148C55.0008 100.09 55.6477 100.893 56.3012 101.684C56.5102 101.934 56.9814 101.667 56.8592 101.359C56.4146 100.262 56.1812 99.1475 56.4146 97.9705L56.0122 98.1979C56.628 98.4431 57.0637 98.6616 57.4438 99.2323C57.6438 99.5354 58.1751 99.3504 58.0528 98.9737C57.8639 98.3941 57.8972 97.8769 57.9172 97.2795L57.2948 97.4489C57.486 97.7521 57.6972 98.0374 57.8883 98.3406C58.0262 98.5635 58.453 98.5635 58.4974 98.2603C58.533 98.0107 58.6086 97.7677 58.6463 97.518C58.5374 97.5983 58.4241 97.6807 58.324 97.7632L58.6286 97.8947C58.8864 98.2336 59.4644 97.8947 59.2043 97.5559C58.9442 97.2171 58.7264 97.0633 58.3151 97.0945C58.2421 97.0946 58.1712 97.1187 58.113 97.1629C58.0548 97.2072 58.0126 97.2692 57.9928 97.3397C57.9573 97.5893 57.8817 97.8323 57.8461 98.082L58.4552 98.0017C58.264 97.6986 58.0528 97.4155 57.8617 97.1101C57.8235 97.0487 57.7665 97.0014 57.6994 96.975C57.6322 96.9486 57.5584 96.9447 57.4888 96.9637C57.4192 96.9827 57.3576 97.0237 57.313 97.0805C57.2685 97.1374 57.2434 97.2072 57.2415 97.2795C57.2193 97.9482 57.1904 98.5078 57.4015 99.152L58.0106 98.8934C57.5349 98.1779 56.9614 97.8635 56.1812 97.5559C56.1389 97.5441 56.0946 97.5407 56.051 97.5461C56.0074 97.5515 55.9653 97.5654 55.927 97.5872C55.8888 97.6089 55.8553 97.6381 55.8283 97.6729C55.8014 97.7077 55.7815 97.7475 55.77 97.79C55.5121 99.0874 55.7277 100.316 56.2145 101.535L56.7725 101.21C55.9833 100.264 55.1809 99.4106 53.8694 99.4775C53.7811 99.4781 53.6967 99.5135 53.6343 99.576C53.5719 99.6386 53.5365 99.7233 53.536 99.8118C53.5671 100.998 53.8294 102.146 53.9805 103.318L54.5896 103.06C54.0739 101.912 53.4137 100.875 52.3956 100.117C52.3516 100.092 52.3023 100.076 52.2515 100.073C52.2007 100.069 52.1498 100.077 52.1026 100.096C52.0553 100.115 52.0131 100.145 51.9792 100.183C51.9452 100.221 51.9204 100.266 51.9066 100.316C51.631 101.765 52.06 103.133 52.6802 104.437C52.8669 104.828 53.4404 104.486 53.2559 104.101L53.267 104.103Z" fill="#CDCED1"/>
</g>
<g style="mix-blend-mode:multiply">
<path d="M25.879 26.2242C25.021 27.4592 24.6831 28.868 24.363 30.317C24.3424 30.395 24.3506 30.4779 24.3861 30.5503C24.4216 30.6228 24.482 30.6799 24.5563 30.7111C24.6305 30.7424 24.7135 30.7456 24.7899 30.7203C24.8663 30.695 24.931 30.6428 24.9721 30.5733C26.0168 29.0263 26.7504 27.312 27.6395 25.6691L27.0305 25.5889C27.2661 27.0089 27.0305 28.3976 26.8704 29.8109C26.8326 30.152 27.3372 30.2568 27.4906 29.9804C28.0393 28.9671 28.6658 27.9982 29.3645 27.0824L28.7954 26.8461C28.7399 27.9184 28.2686 28.8948 28.2042 29.967C28.2052 30.0326 28.2254 30.0965 28.2622 30.1508C28.2991 30.205 28.3509 30.2473 28.4114 30.2724C28.4718 30.2975 28.5383 30.3044 28.6026 30.2921C28.6669 30.2798 28.7262 30.2489 28.7732 30.2033C29.3445 29.5591 29.6846 28.7632 30.2536 28.1212L29.6979 27.9741C29.7602 28.4333 29.9202 28.8658 29.9936 29.3116C30.038 29.6282 30.4604 29.5969 30.6026 29.3919C30.8672 29.0151 31.2295 28.7231 31.4918 28.3508L30.8827 28.2706C30.9427 28.6785 31.1183 29.053 31.1784 29.461C31.2184 29.7307 31.5696 29.753 31.7363 29.6081C32.1475 29.2537 32.5721 28.9884 32.9211 28.5671L32.3654 28.4199C32.6121 29.7574 33.4523 29.8845 34.4037 29.0129L33.8347 28.7766C33.7991 29.1556 33.9058 29.3874 33.9947 29.7575C34.0948 30.1765 34.7394 29.9982 34.6371 29.5791C34.5639 29.3171 34.5185 29.0481 34.5015 28.7766C34.5304 28.4667 34.1281 28.362 33.9325 28.5403C33.4523 28.9862 33.13 28.9014 33.0078 28.2416C32.992 28.1854 32.962 28.1343 32.9207 28.0931C32.8794 28.052 32.8282 28.0222 32.7721 28.0067C32.716 27.9913 32.6568 27.9906 32.6003 28.0048C32.5439 28.019 32.492 28.0476 32.4498 28.0878C32.1075 28.5002 31.6674 28.7833 31.265 29.1288L31.823 29.2759C31.763 28.868 31.5851 28.4957 31.5251 28.0878C31.4807 27.7712 31.0605 27.8002 30.9161 28.0075C30.6538 28.3843 30.2914 28.6763 30.0269 29.0486L30.636 29.1266C30.5737 28.6808 30.4137 28.2483 30.3403 27.7891C30.3243 27.733 30.294 27.6821 30.2524 27.6413C30.2108 27.6005 30.1593 27.5713 30.1031 27.5564C30.0468 27.5416 29.9877 27.5417 29.9315 27.5567C29.8752 27.5717 29.8239 27.6011 29.7824 27.642C29.2111 28.284 28.871 29.082 28.302 29.7218L28.871 29.9603C28.9333 28.8903 29.4067 27.9139 29.4623 26.8394C29.4616 26.7736 29.4418 26.7095 29.4051 26.6549C29.3685 26.6003 29.3167 26.5576 29.2561 26.5322C29.1955 26.5069 29.1289 26.4998 29.0644 26.512C28.9999 26.5243 28.9404 26.5552 28.8932 26.6009C28.1565 27.5641 27.4951 28.5829 26.9149 29.6482L27.5373 29.8176C27.6973 28.3352 27.9196 26.9063 27.6729 25.4195C27.6546 25.3568 27.6186 25.3008 27.5691 25.2583C27.5197 25.2158 27.459 25.1887 27.3944 25.1802C27.3299 25.1717 27.2643 25.1822 27.2056 25.2104C27.1469 25.2386 27.0976 25.2834 27.0638 25.3392C26.1747 26.9821 25.4411 28.683 24.3964 30.2434L25.0054 30.4998C25.3122 29.1088 25.6301 27.7556 26.4548 26.5675C26.6993 26.213 26.1213 25.8787 25.879 26.2309V26.2242Z" fill="#CDCED1"/>
</g>
<g style="mix-blend-mode:multiply">
<path d="M25.4345 31.5742C24.7032 32.7713 24.9188 34.1199 24.9432 35.4574C24.946 35.5296 24.9716 35.599 25.0164 35.6554C25.0612 35.7119 25.1229 35.7526 25.1923 35.7715C25.2618 35.7904 25.3355 35.7866 25.4026 35.7606C25.4698 35.7346 25.5269 35.6877 25.5656 35.6269C26.3081 34.6416 26.6193 33.4378 27.195 32.3567L26.5726 32.1895C26.5993 32.7847 26.6948 33.3754 26.7215 33.9728C26.7236 34.038 26.7443 34.1012 26.7813 34.1548C26.8183 34.2085 26.8699 34.2503 26.93 34.2752C26.99 34.3002 27.056 34.3072 27.12 34.2955C27.184 34.2837 27.2432 34.2538 27.2906 34.2091C27.5328 33.9617 27.7489 33.6898 27.9352 33.3977L27.3261 33.3174C27.4239 33.9349 27.8396 34.3362 28.1019 34.8779C28.1278 34.9217 28.1633 34.9591 28.2057 34.9871C28.2481 35.0151 28.2964 35.033 28.3468 35.0395C28.3972 35.0459 28.4484 35.0408 28.4965 35.0243C28.5446 35.0079 28.5883 34.9807 28.6243 34.9447C29.1289 34.296 29.6624 33.6964 30.0114 32.9385L29.389 32.7691C29.4179 33.1703 29.5001 33.5582 29.5379 33.9594C29.5399 34.0246 29.5607 34.0878 29.5977 34.1415C29.6346 34.1951 29.6863 34.2369 29.7463 34.2618C29.8064 34.2868 29.8724 34.2938 29.9364 34.2821C30.0003 34.2704 30.0596 34.2404 30.107 34.1957C30.616 33.7053 31.125 33.2528 31.4918 32.6353L30.8716 32.4659C30.9027 32.9117 30.9872 33.3576 31.0183 33.8034C31.0211 33.8755 31.0467 33.9449 31.0915 34.0014C31.1363 34.0579 31.198 34.0986 31.2674 34.1175C31.3369 34.1364 31.4106 34.1325 31.4777 34.1065C31.5449 34.0805 31.602 34.0337 31.6407 33.9728C31.8875 33.6028 32.1876 33.3375 32.3809 32.9318L31.8586 32.9987C32.0508 33.2044 32.1757 33.4642 32.2165 33.7432C32.233 33.7989 32.2636 33.8493 32.3053 33.8897C32.3469 33.9301 32.3982 33.9591 32.4542 33.9738C32.5103 33.9886 32.5691 33.9887 32.6252 33.9741C32.6813 33.9594 32.7326 33.9306 32.7744 33.8903C32.9856 33.6631 33.2728 33.5219 33.5813 33.4935L33.2479 33.1592V33.2082C33.2012 33.6384 33.8703 33.6317 33.9147 33.2082V33.1592C33.9147 33.0705 33.8796 32.9854 33.8171 32.9227C33.7545 32.86 33.6697 32.8248 33.5813 32.8248C33.0856 32.8248 32.6699 33.1168 32.3031 33.4177L32.8589 33.5649C32.7744 33.1788 32.5922 32.821 32.3298 32.5261C32.2935 32.4902 32.2494 32.4631 32.2011 32.4469C32.1527 32.4306 32.1013 32.4256 32.0507 32.4323C32.0001 32.439 31.9517 32.4571 31.9092 32.4853C31.8667 32.5135 31.8311 32.5511 31.8052 32.5952C31.6185 32.9875 31.3051 33.2751 31.065 33.634L31.6852 33.8034C31.6541 33.3576 31.5696 32.9117 31.5385 32.4659C31.5357 32.3937 31.5101 32.3244 31.4653 32.2679C31.4205 32.2114 31.3588 32.1707 31.2894 32.1518C31.2199 32.1329 31.1462 32.1367 31.0791 32.1628C31.0119 32.1888 30.9548 32.2356 30.9161 32.2965C30.5782 32.8627 30.1047 33.2639 29.6357 33.7142L30.2048 33.9527C30.167 33.5537 30.0847 33.1636 30.0558 32.7624C30.0358 32.4614 29.5868 32.2675 29.4356 32.5952C29.1111 33.2929 28.6221 33.8547 28.153 34.4588L28.6776 34.5257C28.442 34.0308 28.0575 33.6853 27.9685 33.119C27.9219 32.8136 27.4995 32.8203 27.3595 33.041C27.2114 33.2881 27.0295 33.5132 26.8193 33.7098L27.3884 33.9483C27.3617 33.3509 27.2661 32.7601 27.2394 32.1649C27.2375 32.0926 27.2124 32.0229 27.1679 31.966C27.1233 31.9091 27.0617 31.8681 26.9921 31.8491C26.9225 31.8301 26.8487 31.8341 26.7815 31.8605C26.7144 31.8868 26.6575 31.9342 26.6193 31.9955C26.0435 33.0745 25.7301 34.2804 24.9899 35.2657L25.6101 35.4329C25.5879 34.2336 25.35 32.9675 26.0102 31.8863C26.2325 31.5185 25.6568 31.1819 25.4345 31.5497V31.5742Z" fill="#CDCED1"/>
</g>
<g style="mix-blend-mode:multiply">
<path d="M71.0478 52.1117C69.714 52.8674 68.9449 54.2829 67.6401 55.0832L68.1291 55.2838C67.8846 53.7725 69.2406 52.1897 69.4629 50.7051C69.5073 50.3997 69.1605 50.1144 68.9049 50.3796C68.0335 51.2958 67.3289 52.3569 66.3864 53.204L66.9555 53.4403C66.871 52.5977 67.2 51.8108 67.3889 51.0016C67.4033 50.9386 67.3995 50.8727 67.3778 50.8119C67.3561 50.751 67.3176 50.6976 67.2666 50.658C67.2157 50.6184 67.1545 50.5942 67.0903 50.5883C67.0261 50.5825 66.9616 50.5951 66.9043 50.6248C66.1962 51.0135 65.5697 51.5358 65.0593 52.163L65.6284 52.3993C65.5573 51.4719 65.9085 50.6694 66.2086 49.8134C66.313 49.5169 65.9596 49.3141 65.7195 49.4367C65.1653 49.6878 64.643 50.0044 64.1635 50.3796L64.7215 50.7051C64.8393 50.0096 64.8059 49.3052 65.0171 48.6253C65.0366 48.554 65.0321 48.4782 65.0044 48.4097C64.9767 48.3413 64.9272 48.2838 64.8637 48.2463C64.5481 48.0747 64.497 48.1415 64.1969 48.0657L64.4414 48.3867C64.408 48.039 64.3258 47.6957 64.2925 47.3479C64.2747 47.1495 64.0902 46.9422 63.8701 47.0247C63.4796 47.1329 63.1056 47.2942 62.7587 47.504L63.2588 47.7938C63.3166 47.1964 63.101 46.7773 62.9521 46.2177C62.9227 46.1389 62.865 46.0739 62.7903 46.0357C62.7155 45.9974 62.6292 45.9886 62.5483 46.0109C62.4674 46.0333 62.3978 46.0853 62.3532 46.1566C62.3087 46.2278 62.2923 46.3133 62.3074 46.3961C62.4386 46.8776 62.6431 47.2699 62.592 47.7938C62.5928 47.8524 62.6088 47.9097 62.6385 47.9602C62.6681 48.0107 62.7105 48.0525 62.7612 48.0815C62.8119 48.1106 62.8694 48.1259 62.9278 48.1258C62.9862 48.1258 63.0436 48.1105 63.0943 48.0813C63.3927 47.8994 63.7153 47.7605 64.0524 47.6689L63.63 47.3479C63.6634 47.6957 63.7456 48.039 63.779 48.3867C63.7798 48.4598 63.8041 48.5306 63.8481 48.5888C63.8921 48.647 63.9536 48.6895 64.0235 48.71C64.1989 48.7248 64.3716 48.763 64.537 48.8237L64.3836 48.4469C64.1613 49.1424 64.208 49.8179 64.0857 50.5268C64.0678 50.5977 64.0734 50.6725 64.1016 50.7399C64.1299 50.8074 64.1793 50.8637 64.2423 50.9005C64.3054 50.9373 64.3786 50.9525 64.4511 50.9437C64.5235 50.935 64.5911 50.9029 64.6437 50.8522C65.0814 50.5195 65.5557 50.2382 66.0574 50.014L65.5684 49.6351C65.2461 50.5557 64.8882 51.4184 64.9638 52.3993C64.9838 52.6601 65.3305 52.883 65.5328 52.6356C66.0055 52.0512 66.5868 51.5644 67.2444 51.2022L66.7443 50.8255C66.5442 51.6926 66.1975 52.5353 66.2997 53.4403C66.3018 53.5055 66.3225 53.5687 66.3595 53.6223C66.3965 53.676 66.4481 53.7178 66.5082 53.7427C66.5682 53.7677 66.6342 53.7747 66.6982 53.763C66.7621 53.7512 66.8214 53.7213 66.8688 53.6766C67.8113 52.8295 68.5159 51.7684 69.3873 50.8522L68.8316 50.5268C68.5915 52.1897 67.2178 53.7412 67.4978 55.46C67.5113 55.5093 67.536 55.5549 67.5698 55.5932C67.6037 55.6315 67.6459 55.6616 67.6931 55.6809C67.7404 55.7003 67.7914 55.7086 67.8424 55.705C67.8933 55.7015 67.9427 55.6863 67.9869 55.6606C69.2917 54.8603 70.0697 53.4314 71.3945 52.6891C71.4675 52.6428 71.5197 52.5699 71.5402 52.4858C71.5607 52.4017 71.5478 52.3129 71.5043 52.2381C71.4608 52.1633 71.3901 52.1083 71.307 52.0847C71.2239 52.0612 71.135 52.0708 71.0589 52.1117H71.0478Z" fill="#CDCED1"/>
</g>
<g style="mix-blend-mode:multiply">
<path d="M72.9683 45.6515C73.1372 46.8999 72.8683 48.3867 72.0169 49.3386L72.5748 49.488C72.3281 48.0078 72.5504 46.5053 72.2792 45.0296C72.2609 44.9669 72.2249 44.9109 72.1754 44.8684C72.126 44.826 72.0653 44.7988 72.0008 44.7903C71.9362 44.7818 71.8706 44.7923 71.8119 44.8205C71.7532 44.8488 71.7039 44.8935 71.6701 44.9493C70.9588 46.1687 70.6365 47.5419 70.0385 48.8125H70.6143C70.0008 47.5419 70.3453 45.8856 70.3631 44.5235C70.362 44.4434 70.3323 44.3664 70.2794 44.3063C70.2265 44.2463 70.1538 44.2074 70.0746 44.1966C69.9955 44.1858 69.9151 44.2038 69.8481 44.2475C69.7811 44.2911 69.7319 44.3575 69.7096 44.4344C69.4307 45.3445 69.0441 46.2179 68.5581 47.0358L69.1783 47.2053C69.195 46.2315 69.1415 45.2578 69.0182 44.2917C69.003 44.2351 68.9733 44.1835 68.9321 44.1419C68.8909 44.1004 68.8395 44.0703 68.7831 44.0548C68.7268 44.0392 68.6673 44.0387 68.6107 44.0533C68.5541 44.0679 68.5022 44.0971 68.4603 44.1379C68.0602 44.6305 67.5289 44.9828 67.1266 45.4754L67.6845 45.8009C67.7846 45.1009 67.6001 44.4634 67.5489 43.7812C67.5473 43.7159 67.5268 43.6524 67.49 43.5984C67.4532 43.5444 67.4016 43.5023 67.3415 43.4771C67.2813 43.4519 67.2151 43.4446 67.151 43.4563C67.0868 43.4679 67.0274 43.4979 66.9799 43.5427C66.642 43.8503 66.2797 44.129 65.9418 44.4344L66.5109 44.6729C66.4742 44.392 66.4208 44.1136 66.3508 43.8392C66.3367 43.7903 66.3116 43.7452 66.2776 43.7074C66.2435 43.6696 66.2014 43.64 66.1543 43.6209C66.1072 43.6018 66.0564 43.5937 66.0058 43.5971C65.9551 43.6006 65.9059 43.6155 65.8618 43.6408L65.4172 43.9373L65.9062 44.1379C65.7068 43.7108 65.5577 43.262 65.4617 42.8004C65.3994 42.3746 64.757 42.5552 64.8192 42.9765C64.9112 43.4392 65.0605 43.8885 65.2638 44.314C65.2777 44.3631 65.3026 44.4084 65.3365 44.4465C65.3704 44.4845 65.4125 44.5144 65.4596 44.5337C65.5068 44.553 65.5576 44.5613 65.6084 44.558C65.6592 44.5547 65.7086 44.5399 65.7529 44.5146L66.1974 44.2181L65.7084 44.0175C65.7668 44.233 65.8121 44.4519 65.844 44.6729C65.846 44.7381 65.8668 44.8013 65.9038 44.8549C65.9407 44.9086 65.9924 44.9504 66.0524 44.9753C66.1125 45.0003 66.1785 45.0073 66.2425 44.9956C66.3064 44.9838 66.3657 44.9538 66.413 44.9092C66.7509 44.6016 67.1132 44.3229 67.4511 44.0175L66.8821 43.7812C66.9265 44.3965 67.1288 45.0028 67.0421 45.6225C66.9999 45.9101 67.36 46.2423 67.5978 45.948C68.0002 45.4553 68.5314 45.1054 68.9316 44.6105L68.3758 44.4634C68.4854 45.3707 68.5308 46.2848 68.5114 47.1986C68.5142 47.2707 68.5398 47.3401 68.5846 47.3966C68.6295 47.4531 68.6911 47.4937 68.7606 47.5126C68.83 47.5316 68.9037 47.5277 68.9708 47.5017C69.038 47.4757 69.0951 47.4288 69.1338 47.368C69.6485 46.5018 70.0575 45.5768 70.352 44.6127L69.6962 44.5235C69.6784 46.0394 69.3539 47.7336 70.0385 49.1513C70.0684 49.2012 70.1105 49.2425 70.161 49.2711C70.2114 49.2998 70.2684 49.3148 70.3264 49.3148C70.3844 49.3148 70.4414 49.2998 70.4918 49.2711C70.5423 49.2425 70.5844 49.2012 70.6143 49.1513C71.2122 47.8807 71.5368 46.5031 72.2459 45.2859L71.6346 45.2057C71.9058 46.6792 71.6857 48.1861 71.9324 49.6641C71.9478 49.7203 71.9777 49.7715 72.0189 49.8126C72.0602 49.8537 72.1114 49.8833 72.1676 49.8984C72.2238 49.9135 72.2829 49.9136 72.3392 49.8987C72.3954 49.8838 72.4467 49.8544 72.4881 49.8134C73.5151 48.6609 73.8219 46.9734 73.6129 45.4754C73.5551 45.0496 72.9127 45.2302 72.9683 45.6515Z" fill="#CDCED1"/>
</g>
</g>
<path d="M70.5476 54.517C70.4758 54.5179 70.4057 54.4954 70.3477 54.4529C70.2898 54.4104 70.2472 54.3501 70.2263 54.2812C70.2055 54.2122 70.2076 54.1384 70.2323 54.0708C70.2569 54.0031 70.3029 53.9454 70.3631 53.9062C72.8527 52.2321 73.0061 47.9587 73.1195 44.8379C73.1528 43.9462 73.1795 43.1838 73.2551 42.5529C73.6418 39.2694 74.1642 28.4868 73.3507 27.6687C72.586 26.9018 70.412 26.835 69.6385 26.8751C69.5837 26.8801 69.5286 26.8714 69.4781 26.8496C69.4276 26.8278 69.3834 26.7936 69.3495 26.7502C61.0493 15.6043 45.7582 13.2971 45.6048 13.2748C45.5438 13.2662 45.4864 13.2408 45.4389 13.2015C45.3914 13.1621 45.3558 13.1103 45.3358 13.0519C45.3358 13.0341 44.7357 11.3466 43.8776 11.5606C42.7328 11.8481 40.4433 13.3172 39.9254 14.0974C39.3096 15.0247 34.4971 18.9481 32.5454 20.0025C30.0803 21.34 25.8768 24.1176 25.7546 26.1194C25.749 26.2081 25.7085 26.2909 25.642 26.3496C25.5755 26.4084 25.4885 26.4382 25.4 26.4326C25.3116 26.427 25.229 26.3864 25.1704 26.3197C25.1119 26.253 25.0821 26.1657 25.0877 26.077C25.2611 23.3106 31.0672 20.0404 32.2276 19.414C34.0859 18.4109 38.8028 14.5789 39.3696 13.7273C40.0365 12.7287 42.4817 11.2195 43.7154 10.9119C44.949 10.6043 45.6737 12.0978 45.896 12.6462C47.7232 12.9583 61.814 15.6645 69.783 26.2041C70.4609 26.1885 72.8372 26.2041 73.8219 27.1983C75.0978 28.4779 74.0442 41.5208 73.9175 42.6332C73.8464 43.2373 73.8175 43.9908 73.7863 44.8624C73.6685 48.1259 73.5063 52.5977 70.7343 54.4613C70.6789 54.4978 70.614 54.5172 70.5476 54.517Z" fill="#633E00"/>
<path d="M23.9385 31.6322C23.8611 31.6316 23.7863 31.6042 23.7268 31.5546C23.6672 31.505 23.6266 31.4364 23.6117 31.3602C22.9916 28.09 26.8149 24.6526 26.9794 24.5077C27.0457 24.4486 27.1327 24.4183 27.2213 24.4235C27.3099 24.4287 27.3928 24.4691 27.4517 24.5356C27.5107 24.6021 27.5409 24.6893 27.5357 24.7782C27.5305 24.867 27.4903 24.9501 27.424 25.0093C27.3884 25.0405 23.7207 28.3374 24.2719 31.2354C24.28 31.2786 24.2794 31.3229 24.2704 31.3659C24.2613 31.4089 24.2439 31.4496 24.2192 31.4859C24.1944 31.5221 24.1627 31.5531 24.126 31.577C24.0893 31.601 24.0482 31.6174 24.0052 31.6255C23.9833 31.6304 23.9609 31.6326 23.9385 31.6322Z" fill="#633E00"/>
<path d="M3.43253 96.4926H3.41252C3.28384 96.4983 3.15574 96.4722 3.03947 96.4166C2.9232 96.361 2.82231 96.2776 2.74566 96.1738C2.73528 96.1602 2.72563 96.1461 2.71677 96.1315L2.66786 96.1582C2.54853 96.2212 2.41647 96.2562 2.28168 96.2604C2.14689 96.2647 2.0129 96.2381 1.88986 96.1828C1.73986 96.1258 1.60556 96.0338 1.49809 95.9144C1.39063 95.795 1.31309 95.6516 1.2719 95.4962C1.10671 95.5336 0.934952 95.5304 0.771244 95.4869C0.607536 95.4435 0.45672 95.361 0.331627 95.2465C-0.292999 94.7784 -0.00402589 92.9326 0.936248 87.7743C1.44306 85.0279 2.01656 81.9137 2.26997 79.2677C2.81013 73.581 5.92881 59.2273 12.1195 51.1554C15.4694 46.7884 22.4647 39.2627 23.245 38.4268L23.5384 36.5164C22.2914 31.786 25.1122 29.7686 25.2344 29.6839C25.3072 29.6334 25.3971 29.6139 25.4842 29.6298C25.5713 29.6456 25.6486 29.6956 25.699 29.7686C25.7494 29.8416 25.7688 29.9317 25.753 30.0191C25.7372 30.1065 25.6873 30.184 25.6145 30.2345C25.5012 30.3148 23.0382 32.1115 24.2008 36.4116C24.2108 36.4571 24.2108 36.5043 24.2008 36.5498L23.8785 38.6296C23.8689 38.6962 23.8394 38.7584 23.794 38.808C23.7162 38.8882 16.1518 46.9824 12.6374 51.5634C6.54232 59.5193 3.46587 73.7059 2.93238 79.3301C2.67898 82.0051 2.10103 85.126 1.59866 87.8946C1.07407 90.7391 0.420542 94.2768 0.749527 94.7226C0.79437 94.7669 0.848073 94.8011 0.907084 94.823C0.966096 94.8449 1.02907 94.854 1.09185 94.8497C1.18256 94.7878 1.24928 94.6965 1.28079 94.5911C1.29425 94.5329 1.31132 94.4756 1.33192 94.4195C1.36106 94.341 1.41849 94.2763 1.49288 94.2383C1.56726 94.2002 1.65318 94.1916 1.73363 94.214C1.81409 94.2364 1.88323 94.2882 1.92739 94.3593C1.97155 94.4304 1.9875 94.5155 1.9721 94.5978C1.95994 94.6552 1.94435 94.7117 1.92542 94.7672C1.8743 94.9901 1.8165 95.436 2.14771 95.5586C2.18202 95.5766 2.22015 95.5859 2.25885 95.5859C2.29756 95.5859 2.33569 95.5766 2.37 95.5586C2.50441 95.4508 2.60035 95.3022 2.64341 95.135C2.65165 95.0951 2.66204 95.0557 2.67453 95.0169C2.69949 94.9341 2.7555 94.8642 2.83078 94.8219C2.90607 94.7796 2.99477 94.7682 3.07824 94.7902C3.16171 94.8121 3.23345 94.8656 3.27838 94.9395C3.3233 95.0134 3.33792 95.1018 3.31916 95.1863C3.31916 95.2019 3.30583 95.242 3.29027 95.2978C3.2386 95.451 3.2386 95.6171 3.29027 95.7704C3.30805 95.7971 3.35028 95.8105 3.41252 95.8127C4.17497 95.5898 9.23644 90.7435 13.6377 86.2629C13.6999 86.1996 13.7846 86.1637 13.8732 86.1631C13.9618 86.1625 14.047 86.1972 14.1101 86.2595C14.1732 86.3219 14.209 86.4069 14.2096 86.4957C14.2102 86.5845 14.1756 86.67 14.1134 86.7332C14.089 86.7555 11.7105 89.1853 9.24533 91.5683C4.27722 96.3789 3.69705 96.4926 3.43253 96.4926Z" fill="#633E00"/>
<path d="M14.5602 85.8037C14.5388 85.8059 14.5172 85.8059 14.4958 85.8037C13.2585 85.5377 12.1303 84.9028 11.2593 83.9824C11.2003 83.9159 11.1701 83.8286 11.1753 83.7398C11.1805 83.6509 11.2207 83.5678 11.287 83.5087C11.3534 83.4496 11.4404 83.4193 11.529 83.4245C11.6176 83.4298 11.7004 83.4701 11.7594 83.5366C12.5373 84.3417 13.5334 84.9005 14.6247 85.1438C14.7131 85.1524 14.7945 85.1958 14.851 85.2646C14.9075 85.3334 14.9344 85.4218 14.9259 85.5105C14.9173 85.5992 14.874 85.6809 14.8054 85.7375C14.7369 85.7941 14.6486 85.8212 14.5602 85.8126V85.8037Z" fill="#633E00"/>
<path d="M38.316 94.8653H38.2782C23.5851 93.2045 12.842 86.0778 12.7353 86.0065C12.6988 85.9818 12.6675 85.9501 12.6432 85.9132C12.619 85.8763 12.6022 85.8351 12.5938 85.7917C12.5854 85.7483 12.5857 85.7037 12.5945 85.6605C12.6033 85.6172 12.6206 85.5761 12.6452 85.5395C12.6699 85.5029 12.7015 85.4715 12.7383 85.4472C12.775 85.4228 12.8162 85.406 12.8594 85.3976C12.9027 85.3892 12.9471 85.3895 12.9903 85.3983C13.0335 85.4072 13.0744 85.4245 13.1109 85.4492C13.2154 85.5205 23.834 92.5559 38.3583 94.1988C38.4459 94.2094 38.5258 94.2542 38.5807 94.3234C38.6356 94.3927 38.6611 94.4808 38.6517 94.5688C38.6428 94.6514 38.6034 94.7276 38.5413 94.7824C38.4792 94.8373 38.3988 94.8669 38.316 94.8653Z" fill="#633E00"/>
<path d="M40.7056 111.555C40.5701 111.561 40.4347 111.538 40.3087 111.488C40.1826 111.438 40.0686 111.361 39.9743 111.263C39.9399 111.225 39.9087 111.184 39.8809 111.141C39.5853 111.41 39.1896 111.651 38.8095 111.508C38.5031 111.368 38.2637 111.113 38.1427 110.797C37.9468 110.93 37.7131 110.994 37.4772 110.982C37.2413 110.969 37.016 110.879 36.8356 110.726C36.6289 110.548 36.3155 110.28 36.4777 102.288C36.5577 98.4142 36.7178 94.5554 36.7178 94.5175C36.7197 94.4736 36.7302 94.4305 36.7487 94.3907C36.7672 94.3508 36.7934 94.315 36.8257 94.2853C36.858 94.2556 36.8958 94.2326 36.937 94.2176C36.9782 94.2025 37.0219 94.1958 37.0657 94.1977C37.1095 94.1996 37.1524 94.2101 37.1922 94.2286C37.2319 94.2472 37.2676 94.2734 37.2972 94.3058C37.3268 94.3382 37.3498 94.3762 37.3648 94.4175C37.3798 94.4588 37.3866 94.5026 37.3847 94.5465C37.1513 100.16 36.9245 109.317 37.3002 110.24C37.6336 110.479 38.0448 110.039 38.0626 110.017C38.104 109.972 38.157 109.939 38.2157 109.922C38.2744 109.905 38.3366 109.905 38.3956 109.921C38.4545 109.937 38.5079 109.969 38.55 110.014C38.592 110.058 38.621 110.113 38.6339 110.173C38.6873 110.416 38.8562 110.808 39.0362 110.878C39.1407 110.893 39.5008 110.617 39.7631 110.265C39.8068 110.207 39.8678 110.165 39.937 110.145C40.0063 110.125 40.0801 110.128 40.1477 110.153C40.2162 110.177 40.2751 110.223 40.3152 110.284C40.3553 110.345 40.3746 110.417 40.37 110.49C40.3627 110.602 40.3958 110.714 40.4633 110.804C40.4909 110.831 40.5237 110.852 40.5597 110.865C40.5956 110.878 40.634 110.884 40.6723 110.882C41.6459 110.461 48.2523 102.494 50.6152 96.0378C51.5043 93.5969 52.9203 90.242 54.4163 86.6953C56.6147 81.4768 58.8887 76.0822 60.0023 72.4709C60.0134 72.4268 60.0333 72.3854 60.0608 72.3492C60.0883 72.3131 60.1229 72.2829 60.1625 72.2606C60.202 72.2384 60.2457 72.2244 60.2908 72.2196C60.3359 72.2149 60.3815 72.2194 60.4248 72.2329C60.4682 72.2464 60.5083 72.2687 60.5427 72.2983C60.5772 72.3279 60.6052 72.3642 60.6252 72.405C60.6451 72.4459 60.6566 72.4904 60.6588 72.5358C60.661 72.5813 60.654 72.6267 60.6381 72.6693C59.5155 76.3118 57.2349 81.722 55.0298 86.9561C53.5382 90.4961 52.1289 93.8421 51.2509 96.2675C48.9814 102.458 41.8882 111.555 40.7056 111.555Z" fill="#633E00"/>
<path d="M61.9829 73.0014C60.6387 73.0036 59.2966 72.8933 57.9706 72.6715C57.8822 72.657 57.8031 72.6079 57.7508 72.535C57.6985 72.462 57.6772 72.3712 57.6917 72.2825C57.7061 72.1938 57.7551 72.1145 57.8278 72.0621C57.9006 72.0096 57.9911 71.9883 58.0796 72.0028C66.971 73.5008 77.3852 68.9443 78.2877 68.3803C78.3048 68.3685 78.3193 68.3533 78.3304 68.3357C78.3415 68.3181 78.3489 68.2984 78.3521 68.2778C78.3521 68.1418 78.0854 67.8899 77.8587 67.7517C77.8015 67.717 77.7561 67.666 77.7282 67.6051C77.7003 67.5443 77.6913 67.4764 77.7023 67.4104C77.7133 67.3443 77.7439 67.2831 77.79 67.2347C77.8361 67.1862 77.8956 67.1528 77.9609 67.1387C78.241 67.0785 78.7745 66.86 78.8012 66.6126C78.8278 66.3651 78.3944 65.9951 78.0921 65.8279C78.0309 65.7929 77.9822 65.7395 77.9529 65.6752C77.9237 65.6109 77.9154 65.539 77.9291 65.4697C77.9429 65.4004 77.9781 65.3372 78.0297 65.2891C78.0812 65.2409 78.1466 65.2103 78.2165 65.2015C78.3511 65.1713 78.475 65.1049 78.5748 65.0095C78.6747 64.914 78.7468 64.7932 78.7834 64.6598C78.8323 64.4703 78.7523 64.4124 78.7278 64.3945C78.5678 64.2987 77.6964 64.2363 76.9295 64.1716C75.3735 64.0579 73.0506 63.8863 70.8255 63.2487C67.1378 62.1921 64.5437 59.0356 64.4348 58.9018C64.379 58.8329 64.3529 58.7447 64.3621 58.6565C64.3712 58.5683 64.415 58.4873 64.4837 58.4314C64.5523 58.3756 64.6403 58.3494 64.7283 58.3586C64.8163 58.3678 64.897 58.4116 64.9527 58.4805C64.9771 58.5117 67.5268 61.6014 71.01 62.6045C73.1684 63.2242 75.4557 63.3936 76.9784 63.4962C78.2632 63.592 78.8434 63.6411 79.1146 63.835C79.2627 63.9444 79.3727 64.0979 79.429 64.2735C79.4852 64.4492 79.4849 64.6382 79.428 64.8136C79.3417 65.1177 79.162 65.3868 78.9145 65.5827C79.2102 65.8413 79.5103 66.2225 79.4636 66.6683C79.4169 67.1141 79.0435 67.4017 78.6989 67.56C78.876 67.735 78.9881 67.9655 79.0168 68.2131C79.0231 68.3457 78.9956 68.4778 78.9369 68.5968C78.8782 68.7157 78.7901 68.8177 78.6811 68.893C78.6167 68.9867 70.561 73.0014 61.9829 73.0014Z" fill="#633E00"/>
<path d="M12.115 52.0493C12.0681 52.0492 12.0216 52.0393 11.9788 52.0201C11.9359 52.0009 11.8975 51.9729 11.8661 51.9379C11.7883 51.8509 11.3148 51.4006 10.7168 50.8233C4.16605 44.5949 3.07684 43.244 3.20799 42.7224C3.25871 42.4748 3.38449 42.2491 3.56809 42.0759C3.41161 41.9106 3.29985 41.7079 3.24344 41.4871C3.18703 41.2663 3.18784 41.0346 3.24578 40.8142C3.30466 40.6086 3.41873 40.4232 3.57552 40.2781C3.73231 40.133 3.92582 40.034 4.13493 39.9916C4.00811 39.8015 3.93161 39.5821 3.91264 39.3541C3.90448 39.2082 3.92765 39.0623 3.98057 38.9261C4.03349 38.79 4.11493 38.6668 4.21939 38.565C4.73288 38.05 6.18886 38.4535 9.38756 39.4968C10.6657 39.9025 11.9683 40.3483 12.9464 40.5489C15.5783 41.1196 21.3466 40.5489 21.4044 40.5489C21.4928 40.5401 21.5811 40.5668 21.6499 40.6232C21.7187 40.6797 21.7623 40.7612 21.7712 40.8499C21.78 40.9386 21.7534 41.0271 21.6971 41.0961C21.6408 41.1651 21.5595 41.2088 21.4711 41.2177C21.2288 41.2422 15.5405 41.804 12.8019 41.2177C11.7905 40.9948 10.4634 40.5668 9.17862 40.1477C7.54258 39.6149 5.06853 38.8102 4.68397 39.0598C4.64374 39.0937 4.61194 39.1366 4.5911 39.1849C4.57026 39.2333 4.56096 39.2859 4.56394 39.3385C4.5795 39.6038 4.88403 39.9248 5.03074 40.0407C5.0884 40.0862 5.12945 40.1496 5.14754 40.2209C5.16562 40.2923 5.15973 40.3676 5.13077 40.4353C5.10094 40.503 5.04979 40.5591 4.98516 40.5949C4.92052 40.6307 4.84596 40.6443 4.77289 40.6336C4.74399 40.6336 4.02378 40.5311 3.88374 41.0215C3.73259 41.5498 4.39055 41.9422 4.39722 41.9466C4.46806 41.9874 4.52151 42.0528 4.54744 42.1305C4.57337 42.2081 4.56998 42.2926 4.53791 42.368C4.50584 42.4433 4.44732 42.5042 4.37345 42.5391C4.29958 42.574 4.21549 42.5806 4.13715 42.5574C4.03045 42.5351 3.9282 42.6444 3.86374 42.8584C4.1905 43.7278 9.43424 48.71 11.1703 50.3618C11.9061 51.0618 12.264 51.4029 12.3573 51.5054C12.387 51.5379 12.4099 51.576 12.4247 51.6174C12.4395 51.6589 12.446 51.7028 12.4437 51.7468C12.4414 51.7908 12.4305 51.8339 12.4114 51.8736C12.3924 51.9133 12.3657 51.9487 12.3329 51.978C12.2712 52.0274 12.1938 52.0527 12.115 52.0493Z" fill="#633E00"/>
<path d="M57.4327 135.548C57.3653 135.548 57.2994 135.528 57.2437 135.49C54.9142 133.883 55.3565 130.445 55.87 126.466C56.1856 123.999 56.5368 121.201 56.2679 118.53C55.561 111.762 49.3592 99.7338 49.2947 99.6134C49.2541 99.5345 49.2463 99.4426 49.2732 99.358C49.3001 99.2733 49.3594 99.2028 49.4381 99.162C49.5168 99.1212 49.6085 99.1135 49.6929 99.1404C49.7773 99.1674 49.8476 99.2269 49.8882 99.3058C50.1461 99.8029 56.2101 111.566 56.9303 118.461C57.2193 121.21 56.8525 124.048 56.5302 126.551C56.0456 130.314 55.6277 133.564 57.6216 134.939C57.6942 134.989 57.7441 135.066 57.7604 135.153C57.7766 135.24 57.7579 135.33 57.7083 135.403C57.6778 135.448 57.6367 135.485 57.5886 135.51C57.5405 135.535 57.487 135.548 57.4327 135.548Z" fill="#633E00"/>
<path d="M60.3224 137.777C60.2799 137.777 60.2378 137.77 60.1979 137.755C56.668 136.337 57.0971 132.318 57.1015 132.278C57.1066 132.234 57.1203 132.191 57.1418 132.153C57.1632 132.114 57.1921 132.08 57.2267 132.053C57.2612 132.025 57.3009 132.005 57.3433 131.993C57.3857 131.981 57.43 131.977 57.4738 131.982C57.5176 131.987 57.56 132.001 57.5985 132.023C57.637 132.044 57.6709 132.073 57.6982 132.108C57.7256 132.143 57.7458 132.182 57.7579 132.225C57.7699 132.267 57.7735 132.312 57.7684 132.356C57.7506 132.507 57.4038 135.922 60.4514 137.133C60.4933 137.149 60.5314 137.174 60.5636 137.205C60.5957 137.237 60.6212 137.275 60.6384 137.316C60.6557 137.358 60.6643 137.403 60.6639 137.448C60.6634 137.493 60.6539 137.537 60.6359 137.579C60.6095 137.64 60.5656 137.691 60.5097 137.726C60.4537 137.762 60.3885 137.779 60.3224 137.777Z" fill="#633E00"/>
<path d="M63.2121 138C60.0779 138 59.1243 135.008 59.1154 134.977C59.0964 134.895 59.1093 134.808 59.1514 134.735C59.1934 134.662 59.2616 134.607 59.3422 134.582C59.4228 134.558 59.5098 134.564 59.5856 134.601C59.6615 134.638 59.7207 134.702 59.7511 134.781C59.7867 134.89 60.5803 137.331 63.2121 137.331C64.7682 137.331 67.2778 134.373 67.6846 133.412C69.2406 129.745 70.9966 125.59 69.7763 119.453C67.6801 108.909 61.5694 99.9144 57.1548 94.0717C55.4743 91.8425 54.3718 88.2312 54.3273 88.0796C54.3043 87.9956 54.3149 87.9058 54.3569 87.8295C54.3989 87.7532 54.469 87.6963 54.5521 87.6711C54.6353 87.6458 54.725 87.6541 54.8022 87.6941C54.8794 87.7342 54.9379 87.803 54.9653 87.8857C54.9764 87.9214 56.0767 91.5349 57.6883 93.6682C62.1341 99.5689 68.3092 108.651 70.4298 119.328C71.6902 125.668 69.8874 129.926 68.2981 133.68C67.8424 134.752 65.1505 138 63.2121 138Z" fill="#633E00"/>
<path d="M46.7629 28.0276C47.8743 26.8461 48.1744 24.6392 44.0955 22.0824C40.5389 19.8532 38.0092 20.8987 37.0601 22.0824C35.9953 23.4199 37.0934 26.3936 40.4277 28.0276C43.762 29.6616 45.6737 29.1801 46.7629 28.0276Z" fill="white"/>
<path d="M44.1688 29.4253C43.0574 29.4253 41.7525 29.0597 40.281 28.3397C38.2671 27.3521 36.7867 25.7137 36.4199 24.0641C36.2287 23.2059 36.3643 22.4323 36.8 21.884C37.5202 20.9923 38.765 20.4506 40.1343 20.4506C41.4413 20.4506 42.8329 20.8964 44.2733 21.8104C46.4339 23.1657 47.6187 24.5612 47.7965 25.9589C47.8468 26.3788 47.8017 26.8046 47.6647 27.2045C47.5276 27.6045 47.3022 27.9681 47.0052 28.2683C46.6404 28.6507 46.1991 28.9514 45.7103 29.1508C45.2215 29.3501 44.6962 29.4437 44.1688 29.4253ZM40.1343 21.1082C38.4027 21.1082 37.5424 22.0155 37.3201 22.2919C37.0134 22.6775 36.9245 23.2504 37.069 23.9081C37.3246 25.0494 38.3782 26.65 40.5744 27.7267C43.2752 29.0508 45.3047 29.0842 46.5206 27.798C46.7499 27.5697 46.9246 27.2922 47.0312 26.9863C47.1379 26.6805 47.1738 26.3543 47.1363 26.0325C46.9874 24.8599 45.8737 23.5804 43.9198 22.3677C42.5861 21.5317 41.3146 21.1082 40.1343 21.1082Z" fill="#633E00"/>
<path d="M65.7196 37.622C66.4264 36.153 66.6576 34.5212 62.6075 31.6768C59.1732 29.2648 56.299 30.4931 55.3521 31.6768C54.2851 33.0143 55.6055 35.988 58.9398 37.622C62.2741 39.256 65.2128 38.6742 65.7196 37.622Z" fill="white"/>
<path d="M62.9988 38.9751C61.5361 38.9492 60.0986 38.5893 58.7953 37.923C56.2524 36.6768 55.032 34.8177 54.7386 33.4958C54.5585 32.6977 54.6852 31.9755 55.0942 31.4672C55.6522 30.7695 56.9237 29.9558 58.6708 29.9558C60.0446 29.9558 61.4339 30.4418 62.8009 31.4026C66.6999 34.14 66.9088 35.9278 66.0219 37.7669C65.6618 38.5115 64.5037 38.9751 62.9988 38.9751ZM58.6797 30.6246C57.1682 30.6246 56.0879 31.3045 55.6233 31.8863C55.341 32.2385 55.2632 32.7446 55.401 33.3509C55.65 34.4655 56.7703 36.1775 59.1021 37.3211C60.3138 37.9434 61.651 38.2804 63.0121 38.3064C64.4014 38.3064 65.235 37.8761 65.435 37.4771C66.0574 36.1842 66.3375 34.6929 62.4319 31.951C61.1649 31.0704 59.9023 30.6246 58.6797 30.6246Z" fill="#633E00"/>
<path d="M44.3177 25.3147C45.3202 25.3147 45.3202 23.7542 44.3177 23.7542C43.3152 23.7542 43.3152 25.3147 44.3177 25.3147Z" fill="#633E00"/>
<path d="M59.989 33.3398C60.9915 33.3398 60.9915 31.7793 59.989 31.7793C58.9865 31.7793 58.9865 33.3398 59.989 33.3398Z" fill="#633E00"/>
<path d="M48.5412 36.3358L48.6124 32.963L46.5251 35.2056C46.9071 35.2257 47.283 35.3109 47.6365 35.4575C48.0967 35.6804 48.5412 36.3358 48.5412 36.3358Z" fill="#CDCED1"/>
<path d="M48.6123 32.963C48.6123 32.963 47.6276 31.5207 48.25 30.9567C48.8724 30.3928 51.0041 31.7637 50.5507 32.3634C50.0972 32.963 48.6123 32.963 48.6123 32.963Z" fill="#FFBED5"/>
<path d="M48.6124 33.2974C48.5581 33.2977 48.5046 33.2847 48.4565 33.2594C48.4084 33.2342 48.3673 33.1974 48.3367 33.1525C48.2189 32.9786 47.2142 31.4472 48.0233 30.7004C48.2008 30.5473 48.4296 30.4676 48.6635 30.4775C49.4104 30.4775 50.5351 31.1462 50.8508 31.7882C50.9205 31.9054 50.9544 32.0407 50.9481 32.177C50.9417 32.3134 50.8955 32.4449 50.8152 32.5551C50.2751 33.2662 48.7813 33.2929 48.6124 33.2929V33.2974ZM48.6635 31.1507C48.597 31.1439 48.5302 31.1604 48.4745 31.1975C48.2167 31.4338 48.519 32.1694 48.7902 32.6219C49.3126 32.5952 50.055 32.457 50.2839 32.1538C50.2428 32.049 50.1791 31.9546 50.0972 31.8774C49.7349 31.4895 49.0658 31.1507 48.6635 31.1507Z" fill="#633E00"/>
<path d="M48.5412 36.6702C48.4974 36.6696 48.454 36.6603 48.4138 36.6428C48.3735 36.6252 48.3371 36.5999 48.3067 36.5682C48.2763 36.5364 48.2525 36.4989 48.2367 36.4579C48.2208 36.4169 48.2133 36.3731 48.2145 36.3291L48.2678 33.8302L46.7696 35.4441C46.7429 35.4842 46.7079 35.5179 46.667 35.5432C46.6261 35.5684 46.5802 35.5845 46.5326 35.5903C46.4849 35.5961 46.4365 35.5915 46.3908 35.5768C46.345 35.5622 46.303 35.5377 46.2675 35.5053C46.2321 35.4728 46.204 35.433 46.1853 35.3886C46.1666 35.3443 46.1576 35.2964 46.1591 35.2482C46.1605 35.2001 46.1723 35.1528 46.1937 35.1097C46.2151 35.0665 46.2454 35.0285 46.2828 34.9983L48.3679 32.7557C48.4138 32.706 48.4737 32.6714 48.5397 32.6566C48.6057 32.6419 48.6746 32.6475 48.7373 32.6729C48.8 32.6983 48.8535 32.7422 48.8907 32.7988C48.928 32.8554 48.9472 32.922 48.9458 32.9898L48.8747 36.3358C48.8747 36.4245 48.8395 36.5095 48.777 36.5722C48.7145 36.6349 48.6297 36.6702 48.5412 36.6702Z" fill="#633E00"/>
<path d="M43.7465 13.821C43.5107 13.8254 43.2789 13.7603 43.0796 13.6338C42.9324 13.5319 42.8087 13.3996 42.7167 13.2458C42.6246 13.092 42.5665 12.9203 42.5461 12.7421C42.537 12.6534 42.5634 12.5647 42.6194 12.4955C42.6755 12.4263 42.7567 12.3823 42.8451 12.3731C42.9336 12.364 43.022 12.3904 43.091 12.4467C43.16 12.5029 43.2039 12.5843 43.213 12.673C43.2362 12.8319 43.3208 12.9752 43.4486 13.072C43.6598 13.2058 43.9843 13.1389 44.2222 13.072C44.2638 13.0582 44.3077 13.0528 44.3514 13.0561C44.395 13.0593 44.4377 13.0712 44.4768 13.091C44.5159 13.1107 44.5507 13.138 44.5793 13.1713C44.6079 13.2046 44.6297 13.2432 44.6434 13.2849C44.6571 13.3266 44.6625 13.3706 44.6593 13.4144C44.656 13.4582 44.6442 13.501 44.6245 13.5402C44.6048 13.5794 44.5776 13.6144 44.5444 13.643C44.5112 13.6717 44.4727 13.6936 44.4311 13.7073C44.2104 13.7813 43.9793 13.8197 43.7465 13.821Z" fill="#633E00"/>
<path d="M72.1747 29.5256C71.838 29.536 71.5073 29.4341 71.2345 29.2358C71.0584 29.087 70.916 28.9023 70.8168 28.694C70.7175 28.4856 70.6636 28.2585 70.6588 28.0276C70.6588 27.9389 70.6939 27.8539 70.7564 27.7912C70.8189 27.7285 70.9038 27.6932 70.9922 27.6932C71.0806 27.6932 71.1654 27.7285 71.2279 27.7912C71.2905 27.8539 71.3256 27.9389 71.3256 28.0276C71.3297 28.1564 71.3598 28.2831 71.414 28.4C71.4683 28.5168 71.5456 28.6214 71.6413 28.7075C71.9436 28.9304 72.4326 28.8613 72.7905 28.761C72.8327 28.749 72.8768 28.7455 72.9203 28.7506C72.9639 28.7557 73.006 28.7693 73.0443 28.7907C73.0826 28.8122 73.1163 28.8409 73.1435 28.8754C73.1707 28.9099 73.1909 28.9494 73.2028 28.9917C73.2148 29.034 73.2183 29.0783 73.2132 29.122C73.2082 29.1656 73.1946 29.2079 73.1732 29.2463C73.1518 29.2847 73.1231 29.3185 73.0887 29.3458C73.0543 29.373 73.0149 29.3932 72.9728 29.4052C72.7133 29.481 72.4449 29.5215 72.1747 29.5256Z" fill="#633E00"/>
<path d="M43.5109 43.5561H43.4598C40.4856 43.1103 39.3274 41.3113 39.2808 41.2333C39.2574 41.1963 39.2416 41.155 39.2343 41.1119C39.2269 41.0688 39.2281 41.0246 39.2378 40.9819C39.2475 40.9392 39.2655 40.8989 39.2908 40.8632C39.3161 40.8276 39.3482 40.7973 39.3852 40.7741C39.46 40.7271 39.5502 40.7115 39.6363 40.7307C39.7224 40.7499 39.7975 40.8023 39.8454 40.8766C39.8454 40.8945 40.9035 42.4972 43.5598 42.894C43.6482 42.9005 43.7304 42.942 43.7884 43.0093C43.8463 43.0766 43.8752 43.1643 43.8688 43.2529C43.8623 43.3416 43.8209 43.4241 43.7538 43.4822C43.6867 43.5403 43.5993 43.5693 43.5109 43.5628V43.5561Z" fill="#633E00"/>
<path d="M45.158 44.6373C43.6664 44.6373 41.5347 44.051 41.4369 44.0243C41.3936 44.0136 41.3528 43.9943 41.317 43.9676C41.2813 43.9408 41.2512 43.9072 41.2286 43.8686C41.2061 43.83 41.1915 43.7872 41.1857 43.7429C41.1799 43.6985 41.183 43.6534 41.1949 43.6103C41.2069 43.5672 41.2273 43.5269 41.255 43.4918C41.2827 43.4567 41.3171 43.4276 41.3563 43.4061C41.3954 43.3847 41.4385 43.3713 41.4829 43.3668C41.5273 43.3623 41.5721 43.3668 41.6147 43.38C41.6392 43.38 44.1021 44.0644 45.4647 43.9574C45.5531 43.9512 45.6403 43.9804 45.7073 44.0384C45.7743 44.0964 45.8158 44.1787 45.8226 44.2672C45.8294 44.3556 45.8008 44.4431 45.7433 44.5104C45.6858 44.5777 45.604 44.6193 45.5159 44.6261C45.4025 44.6328 45.2825 44.6373 45.158 44.6373Z" fill="#633E00"/>
<path d="M46.1316 45.6449C45.7171 45.6645 45.3017 45.6308 44.8957 45.5445C44.8108 45.5188 44.7396 45.4603 44.6977 45.382C44.6558 45.3036 44.6467 45.2117 44.6723 45.1266C44.698 45.0414 44.7563 44.97 44.8344 44.928C44.9126 44.886 45.0042 44.8768 45.0891 44.9025C45.1091 44.9025 45.7115 45.0586 47.6032 44.9025C47.6916 44.8957 47.7791 44.9245 47.8464 44.9824C47.9138 45.0403 47.9554 45.1226 47.9622 45.2113C47.9689 45.3 47.9403 45.3877 47.8826 45.4552C47.8248 45.5228 47.7427 45.5645 47.6543 45.5713C47.0186 45.627 46.5206 45.6449 46.1316 45.6449Z" fill="#633E00"/>
<path d="M67.0888 57.0672C67.045 57.0704 67.001 57.065 66.9594 57.0512C66.9177 57.0373 66.8791 57.0154 66.8459 56.9866C66.8127 56.9579 66.7854 56.9228 66.7657 56.8835C66.746 56.8441 66.7341 56.8013 66.7309 56.7574C66.7277 56.7135 66.7332 56.6693 66.747 56.6275C66.7607 56.5857 66.7826 56.5471 66.8113 56.5137C66.84 56.4804 66.875 56.4531 66.9142 56.4333C66.9534 56.4135 66.9961 56.4017 67.0399 56.3985C70.6432 55.8389 70.4476 51.9089 70.4365 51.7417C70.4338 51.6978 70.4399 51.6538 70.4542 51.6122C70.4685 51.5706 70.4909 51.5323 70.52 51.4994C70.5491 51.4665 70.5844 51.4396 70.6238 51.4204C70.6633 51.4012 70.7061 51.3899 70.7499 51.3873C70.7937 51.3846 70.8376 51.3907 70.879 51.405C70.9205 51.4194 70.9587 51.4418 70.9915 51.471C71.0243 51.5002 71.0511 51.5356 71.0703 51.5751C71.0895 51.6147 71.1007 51.6577 71.1033 51.7016C71.1033 51.7484 71.3389 56.4074 67.1422 57.0516L67.0888 57.0672Z" fill="#633E00"/>
<path d="M65.9463 59.1403C54.4073 59.1403 43.0307 53.6343 35.5196 49.0154C30.6774 46.0524 26.1044 42.6681 21.8534 38.9016C21.8027 38.8538 21.7678 38.7915 21.7534 38.7232C21.6245 38.0835 21.6934 37.593 21.9579 37.2698C22.0814 37.1299 22.2351 37.0201 22.4073 36.9486C22.5794 36.8772 22.7656 36.846 22.9515 36.8574C23.2282 36.8628 23.5025 36.9101 23.7651 36.9978C23.8141 37.0156 23.8582 37.0446 23.894 37.0826C23.9474 37.1383 29.2289 42.6778 41.677 49.566C50.2772 54.303 57.3571 56.6214 63.3277 56.6214C64.1546 56.6214 64.8504 56.5812 65.4105 56.5478C65.8107 56.5233 66.1574 56.5032 66.4508 56.5032C66.9754 56.5032 67.5045 56.5612 67.8068 56.9847C68.1513 57.4685 68.2336 57.9054 68.0513 58.2843C67.6845 59.0489 66.3686 59.1426 66.2197 59.1515L65.9463 59.1403ZM22.378 38.4847C26.5803 42.192 31.0948 45.5274 35.8708 48.4536C43.3063 53.0235 54.5585 58.4716 65.9374 58.4716H66.1885C66.5197 58.4515 67.2866 58.3066 67.4422 57.9834C67.5267 57.8051 67.3867 57.5376 67.2533 57.3615C67.1533 57.2188 66.9176 57.1608 66.442 57.1608C66.1685 57.1608 65.8307 57.1809 65.4417 57.2032C64.8726 57.2366 64.1657 57.279 63.3188 57.279C57.2326 57.279 50.0483 54.945 41.3524 50.1456C29.5201 43.6096 24.0941 38.2506 23.4628 37.6086C23.2937 37.559 23.1188 37.5321 22.9426 37.5284C22.8558 37.5191 22.768 37.529 22.6854 37.5575C22.6028 37.586 22.5274 37.6324 22.4647 37.6933C22.3558 37.8382 22.3247 38.1191 22.3869 38.4847H22.378Z" fill="white"/>
<path d="M67.809 58.2197C67.7334 58.22 67.66 58.1946 67.6007 58.1475C67.5414 58.1005 67.4999 58.0346 67.4828 57.9608C67.4658 57.8869 67.4742 57.8094 67.5069 57.7411C67.5395 57.6727 67.5943 57.6174 67.6623 57.5844C78.5544 52.2678 83.2224 43.7879 83.3291 29.2336C83.3869 20.7114 77.2962 11.1772 68.1736 5.51505C58.7997 -0.307589 47.9722 -0.876031 38.4672 3.95462C26.9705 9.79285 23.4361 18.48 22.4958 24.744C21.8822 28.868 22.1289 33.0748 23.2205 37.0982C23.2418 37.1807 23.2309 37.2683 23.1899 37.3431C23.149 37.4178 23.0811 37.474 23.0002 37.5002C22.9192 37.5264 22.8314 37.5206 22.7546 37.484C22.6778 37.4474 22.6178 37.3827 22.587 37.3032C22.5692 37.2475 20.7954 31.6233 21.8334 24.6727C22.7915 18.2504 26.4037 9.3381 38.1649 3.36388C43.3219 0.7379 48.7346 -0.35886 54.2518 0.102582C59.1421 0.510523 64.0791 2.18464 68.5248 4.94437C77.8386 10.7403 84.056 20.4907 83.996 29.2425C83.8959 44.0889 79.1057 52.747 67.9557 58.1907C67.9095 58.2108 67.8594 58.2207 67.809 58.2197Z" fill="white"/>
<path d="M76.5493 45.6449C76.4625 45.6447 76.379 45.6112 76.3159 45.5512C72.3792 41.7059 61.1049 40.4843 60.9915 40.4709C60.9477 40.4664 60.9052 40.4532 60.8665 40.4322C60.8278 40.4112 60.7936 40.3828 60.7658 40.3485C60.738 40.3143 60.7173 40.2749 60.7047 40.2326C60.6921 40.1903 60.688 40.1459 60.6925 40.102C60.697 40.0581 60.7101 40.0155 60.7311 39.9767C60.752 39.9378 60.7804 39.9035 60.8145 39.8757C60.8487 39.8478 60.888 39.827 60.9302 39.8144C60.9724 39.8018 61.0166 39.7976 61.0604 39.8022C61.5339 39.8512 72.6816 41.0639 76.7827 45.0675C76.83 45.114 76.8623 45.1735 76.8756 45.2385C76.889 45.3035 76.8828 45.3711 76.8577 45.4325C76.8327 45.4939 76.79 45.5465 76.7351 45.5835C76.6802 45.6205 76.6155 45.6403 76.5493 45.6404V45.6449Z" fill="#633E00"/>
<path d="M75.6246 49.3899C75.5803 49.3901 75.5364 49.3813 75.4955 49.3641C75.4546 49.3468 75.4176 49.3215 75.3868 49.2896C71.6079 45.3885 61.9807 42.8584 61.8828 42.8249C61.8384 42.816 61.7962 42.7981 61.7589 42.7722C61.7216 42.7464 61.6899 42.7132 61.6659 42.6747C61.6418 42.6362 61.6258 42.5931 61.6188 42.5482C61.6119 42.5032 61.6142 42.4574 61.6255 42.4133C61.6369 42.3693 61.6571 42.3281 61.6849 42.2922C61.7127 42.2562 61.7475 42.2264 61.7871 42.2044C61.8268 42.1824 61.8706 42.1688 61.9157 42.1643C61.9608 42.1598 62.0064 42.1647 62.0496 42.1785C62.4541 42.2832 71.9636 44.7822 75.8647 48.817C75.9111 48.8638 75.9425 48.9235 75.955 48.9883C75.9674 49.0532 75.9603 49.1203 75.9345 49.1811C75.9088 49.2418 75.8655 49.2935 75.8103 49.3295C75.7551 49.3655 75.6905 49.3842 75.6246 49.3832V49.3899Z" fill="#633E00"/>
<path d="M70.2164 50.5045C70.1627 50.5047 70.1098 50.4918 70.0622 50.467C70.0145 50.4421 69.9736 50.406 69.943 50.3618C68.4515 48.2285 60.5892 44.343 60.5092 44.3029C60.4677 44.2849 60.4303 44.2587 60.3992 44.2259C60.3682 44.193 60.3441 44.1541 60.3284 44.1117C60.3128 44.0692 60.3059 44.0239 60.3082 43.9787C60.3106 43.9335 60.322 43.8892 60.3419 43.8485C60.3618 43.8079 60.3897 43.7717 60.424 43.7422C60.4582 43.7127 60.4981 43.6905 60.5412 43.6769C60.5843 43.6633 60.6296 43.6586 60.6746 43.6631C60.7195 43.6677 60.763 43.6813 60.8026 43.7032C61.1249 43.866 68.9049 47.7046 70.4898 49.9784C70.5248 50.0285 70.5454 50.0873 70.5494 50.1484C70.5533 50.2094 70.5405 50.2704 70.5123 50.3246C70.4841 50.3789 70.4416 50.4243 70.3895 50.4561C70.3373 50.4878 70.2774 50.5045 70.2164 50.5045Z" fill="#633E00"/>
<path d="M37.8892 29.1154C37.8406 29.1155 37.7926 29.1049 37.7485 29.0845C37.7043 29.0641 37.6651 29.0344 37.6336 28.9973C37.5669 28.917 30.8338 20.9901 25.5145 20.8719C25.4259 20.8696 25.3418 20.8322 25.2805 20.7678C25.2193 20.7035 25.186 20.6175 25.1878 20.5286C25.1923 20.4407 25.2304 20.3579 25.2941 20.2973C25.3578 20.2367 25.4423 20.203 25.5301 20.2032C31.1495 20.328 37.8603 28.2282 38.1426 28.5648C38.1712 28.5983 38.1929 28.6371 38.2065 28.679C38.22 28.7209 38.2252 28.7651 38.2217 28.809C38.2182 28.8529 38.206 28.8957 38.186 28.9349C38.1659 28.9741 38.1384 29.0089 38.1048 29.0374C38.0439 29.0872 37.9678 29.1147 37.8892 29.1154Z" fill="#633E00"/>
<path d="M35.6219 29.4833C35.5491 29.4833 35.4782 29.4598 35.4196 29.4164C35.3551 29.3673 28.9466 24.5478 23.6873 24.5478H23.6295C23.5411 24.5478 23.4563 24.5126 23.3937 24.4499C23.3312 24.3872 23.2961 24.3021 23.2961 24.2135C23.2961 24.1248 23.3312 24.0397 23.3937 23.977C23.4563 23.9143 23.5411 23.8791 23.6295 23.8791H23.6918C29.1733 23.8791 35.5552 28.6785 35.8242 28.8836C35.8946 28.9371 35.9409 29.0165 35.953 29.1043C35.9651 29.1921 35.9419 29.2811 35.8886 29.3517C35.8576 29.3931 35.8173 29.4266 35.7709 29.4494C35.7246 29.4723 35.6735 29.4839 35.6219 29.4833Z" fill="#633E00"/>
<path d="M35.4085 31.222C35.3659 31.2212 35.3237 31.2129 35.284 31.1975C35.184 31.1574 25.2544 27.185 22.7337 27.5951C22.6899 27.6023 22.6451 27.6008 22.6019 27.5906C22.5587 27.5804 22.518 27.5618 22.482 27.5358C22.4459 27.5098 22.4154 27.477 22.392 27.4392C22.3686 27.4013 22.3529 27.3593 22.3458 27.3154C22.3386 27.2715 22.3402 27.2266 22.3503 27.1832C22.3605 27.1399 22.379 27.0991 22.4049 27.0629C22.4308 27.0268 22.4636 26.9962 22.5013 26.9727C22.539 26.9493 22.581 26.9335 22.6248 26.9264C25.3211 26.4805 35.1173 30.3994 35.533 30.5666C35.6037 30.5967 35.6621 30.6502 35.6982 30.7183C35.7343 30.7863 35.7461 30.8647 35.7315 30.9404C35.717 31.0161 35.6769 31.0844 35.6181 31.1341C35.5593 31.1837 35.4853 31.2116 35.4085 31.2131V31.222Z" fill="#633E00"/>
<path d="M48.1455 65.5916C48.0677 65.5487 48.0045 65.4835 47.964 65.4042C47.9235 65.3249 47.9076 65.2353 47.9184 65.1469C47.9291 65.0586 47.966 64.9754 48.0243 64.9082C48.0826 64.8411 48.1596 64.7929 48.2454 64.77C48.3312 64.7472 48.4219 64.7506 48.5058 64.7798C48.5896 64.8091 48.6629 64.8629 48.716 64.9342C48.7691 65.0056 48.7997 65.0913 48.8038 65.1803C48.8079 65.2692 48.7853 65.3574 48.739 65.4333C48.6794 65.5312 48.5845 65.6023 48.4739 65.6318C48.3634 65.6612 48.2458 65.6469 48.1455 65.5916Z" fill="#E5E8ED"/>
<path d="M50.0483 71.742C50.138 71.7362 50.2273 71.7578 50.3045 71.8039C50.3817 71.85 50.4432 71.9186 50.4807 72.0004C50.5183 72.0823 50.5303 72.1736 50.515 72.2625C50.4998 72.3513 50.4581 72.4334 50.3954 72.4979C50.3327 72.5625 50.2519 72.6065 50.1638 72.6241C50.0757 72.6417 49.9843 72.6321 49.9017 72.5966C49.8191 72.5611 49.7492 72.5013 49.7012 72.4252C49.6531 72.349 49.6292 72.26 49.6326 72.17C49.6315 72.058 49.6745 71.9501 49.7524 71.8699C49.8303 71.7897 49.9367 71.7437 50.0483 71.742Z" fill="#E5E8ED"/>
<path d="M45.4092 69.7736C45.4273 69.8718 45.4156 69.9731 45.3754 70.0645C45.3353 70.1559 45.2687 70.233 45.1842 70.2859C45.0997 70.3387 45.0014 70.3649 44.9019 70.3609C44.8024 70.3568 44.7064 70.3229 44.6265 70.2634C44.5465 70.2039 44.4862 70.1217 44.4536 70.0273C44.4209 69.933 44.4173 69.831 44.4432 69.7346C44.4691 69.6382 44.5234 69.5519 44.599 69.4869C44.6745 69.4219 44.7679 69.3812 44.8668 69.3701C44.9921 69.3516 45.1195 69.3837 45.2212 69.4593C45.3229 69.535 45.3905 69.648 45.4092 69.7736Z" fill="#E5E8ED"/>
<path d="M10.1234 78.1865C10.047 78.1557 9.9816 78.1025 9.93585 78.0338C9.8901 77.9651 9.86609 77.8842 9.86697 77.8016C9.86784 77.719 9.89355 77.6386 9.94074 77.5709C9.98793 77.5032 10.0544 77.4514 10.1314 77.4222C10.2085 77.3931 10.2925 77.3879 10.3725 77.4074C10.4526 77.4269 10.5249 77.4702 10.58 77.5316C10.6351 77.593 10.6704 77.6696 10.6813 77.7515C10.6923 77.8333 10.6783 77.9166 10.6413 77.9904C10.5982 78.0849 10.5195 78.1585 10.4226 78.1953C10.3256 78.232 10.2181 78.2289 10.1234 78.1865Z" fill="#E5E8ED"/>
<path d="M9.63434 70.7522C9.75739 70.777 9.87014 70.8383 9.95789 70.9283C10.0456 71.0183 10.1043 71.1327 10.1263 71.2566C10.1483 71.3805 10.1325 71.5082 10.0811 71.623C10.0297 71.7378 9.94496 71.8344 9.83798 71.9002C9.73101 71.966 9.60674 71.998 9.48138 71.992C9.35602 71.9859 9.23538 71.9422 9.13519 71.8664C9.03499 71.7906 8.95989 71.6863 8.91967 71.5671C8.87945 71.4478 8.87597 71.3192 8.90969 71.198C8.92796 71.121 8.96122 71.0483 9.00756 70.9841C9.0539 70.92 9.11241 70.8657 9.17973 70.8242C9.24705 70.7828 9.32186 70.7551 9.39987 70.7428C9.47788 70.7304 9.55756 70.7336 9.63434 70.7522Z" fill="#E5E8ED"/>
<path d="M56.1701 47.9119C56.2515 48.0099 56.3014 48.1302 56.3135 48.2571C56.3255 48.384 56.299 48.5116 56.2376 48.6232C56.1761 48.7348 56.0825 48.8252 55.9689 48.8825C55.8554 48.9398 55.7272 48.9615 55.6012 48.9446C55.4753 48.9276 55.3573 48.873 55.2628 48.7877C55.1683 48.7025 55.1016 48.5906 55.0716 48.4667C55.0416 48.3428 55.0495 48.2127 55.0944 48.0935C55.1393 47.9742 55.219 47.8713 55.3232 47.7983C55.4508 47.7014 55.6114 47.659 55.77 47.6803C55.9286 47.7016 56.0724 47.7848 56.1701 47.9119Z" fill="white"/>
<path d="M61.1515 49.2651C61.1466 49.3588 61.1136 49.4488 61.0568 49.5234C61 49.598 60.9221 49.6536 60.8332 49.683C60.7444 49.7124 60.6487 49.7143 60.5588 49.6882C60.4689 49.6622 60.3889 49.6096 60.3294 49.5372C60.2698 49.4649 60.2334 49.3762 60.2249 49.2827C60.2165 49.1892 60.2363 49.0954 60.282 49.0135C60.3276 48.9315 60.3968 48.8653 60.4806 48.8235C60.5643 48.7817 60.6587 48.7662 60.7514 48.7791C60.8687 48.7904 60.9767 48.8479 61.0518 48.939C61.1268 49.0302 61.1627 49.1474 61.1515 49.2651Z" fill="white"/>
<path d="M68.4759 29.9336C68.4708 30.1005 68.4155 30.262 68.3173 30.3969C68.2192 30.5317 68.0827 30.6338 67.9257 30.6896C67.7688 30.7454 67.5987 30.7524 67.4377 30.7096C67.2767 30.6669 67.1324 30.5764 67.0236 30.45C66.9147 30.3236 66.8465 30.1672 66.8278 30.0012C66.809 29.8353 66.8407 29.6675 66.9186 29.52C66.9965 29.3724 67.1171 29.2518 67.2645 29.1741C67.4118 29.0963 67.5792 29.065 67.7446 29.0842C67.9539 29.0996 68.1485 29.1978 68.2856 29.357C68.4228 29.5163 68.4912 29.7237 68.4759 29.9336Z" fill="white"/>
<path d="M55.3921 63.1841C55.41 63.2646 55.4031 63.3486 55.3724 63.4251C55.3417 63.5016 55.2886 63.5669 55.2201 63.6125C55.1516 63.6581 55.0709 63.6819 54.9887 63.6806C54.9065 63.6793 54.8266 63.6531 54.7595 63.6053C54.6925 63.5576 54.6415 63.4906 54.6131 63.4132C54.5848 63.3358 54.5806 63.2516 54.6009 63.1717C54.6213 63.0918 54.6653 63.02 54.7272 62.9657C54.789 62.9114 54.8659 62.8772 54.9475 62.8675C55.0481 62.8519 55.1509 62.8762 55.2339 62.9354C55.3169 62.9945 55.3736 63.0837 55.3921 63.1841Z" fill="white"/>
<path d="M44.9379 96.1471C45.0337 96.2487 45.0966 96.377 45.1184 96.5151C45.1402 96.6532 45.1198 96.7947 45.0599 96.921C45.0001 97.0473 44.9035 97.1525 44.783 97.2227C44.6624 97.293 44.5235 97.3251 44.3844 97.3147C44.2454 97.3044 44.1127 97.2521 44.0038 97.1648C43.8949 97.0775 43.8149 96.9591 43.7743 96.8254C43.7336 96.6916 43.7343 96.5486 43.7761 96.4153C43.818 96.2819 43.8991 96.1643 44.0088 96.078C44.142 95.9656 44.3138 95.9099 44.4874 95.9228C44.661 95.9357 44.8227 96.0162 44.9379 96.1471Z" fill="white"/>
<path d="M30.8628 38.0233C30.7879 37.9902 30.7247 37.9353 30.6814 37.8657C30.6382 37.7961 30.6168 37.715 30.6202 37.633C30.6236 37.5511 30.6515 37.472 30.7004 37.4063C30.7493 37.3405 30.8168 37.291 30.8941 37.2642C30.9714 37.2375 31.055 37.2348 31.1339 37.2564C31.2128 37.278 31.2834 37.323 31.3364 37.3855C31.3894 37.4479 31.4224 37.525 31.4311 37.6066C31.4398 37.6881 31.4238 37.7704 31.3851 37.8427C31.3396 37.936 31.2591 38.0074 31.1612 38.0413C31.0632 38.0751 30.9559 38.0687 30.8628 38.0233Z" fill="white"/>
<path d="M45.2669 17.8068C45.1704 17.8117 45.0747 17.7873 44.9922 17.7367C44.9098 17.6861 44.8445 17.6118 44.8048 17.5235C44.7652 17.4351 44.7531 17.3368 44.77 17.2414C44.787 17.146 44.8323 17.0579 44.8999 16.9887C44.9676 16.9195 45.0545 16.8724 45.1493 16.8536C45.2441 16.8347 45.3423 16.845 45.4312 16.883C45.5201 16.9211 45.5954 16.9851 45.6474 17.0668C45.6994 17.1485 45.7256 17.244 45.7226 17.3409C45.7232 17.4015 45.7119 17.4616 45.6893 17.5178C45.6667 17.574 45.6333 17.6252 45.591 17.6685C45.5487 17.7118 45.4983 17.7462 45.4427 17.77C45.3871 17.7937 45.3274 17.8062 45.2669 17.8068Z" fill="white"/>
</svg>
